<?xml version="1.0" encoding="utf-8"?>
<!-- Generator: Adobe Illustrator 23.1.1, SVG Export Plug-In . SVG Version: 6.00 Build 0)  -->
<svg version="1.1" id="Layer_1" xmlns="http://www.w3.org/2000/svg" xmlns:xlink="http://www.w3.org/1999/xlink" x="0px" y="0px"
	 viewBox="0 0 768 1024" style="enable-background:new 0 0 768 1024;" xml:space="preserve">
<style type="text/css">
	.st0{fill:#1885C2;}
</style>
<g>
	<g id="XMLID_2_">
		<g>
			<path class="st0" d="M263.3,741.1c-1.3,2.2-3.9,3.2-5.9,2.1c-2.1-1.1-2.6-2.9-1.6-5.1c1.8-4.1,3.5-8.1,5.5-12.1
				c2-4,3.5-8.2,5-12.4c3-8.8,4.9-17.9,7-27c1.6-7,2.2-14.2,2.9-21.3c1.6-14.6,0.9-29.3,0.8-43.9c0-5.4-1.2-10.8-1.7-16.3
				c-0.3-3.9-1.2-7.7-1.1-11.6c0-2.3-0.8-4-2.6-5.3c-3.4-2.6-6.1-6.1-9.2-9.1c-5.5-5.3-9.7-11.6-14.5-17.4
				c-3.2-3.9-5.8-8.4-8.2-12.9c-3.8-7-7.5-14.1-10.3-21.6c-2.8-7.3-5.1-14.8-6.5-22.5c-2.8-16.5-3.9-33.1-3.2-49.9
				c0.2-5.2,0.6-10.5,1.3-15.8c0.7-4.9,1.6-9.9,1.8-14.9c0.2-4.8,1.5-9.4,3.1-13.9c0.8-2.1,1.9-4.3,1.1-6.7
				c-0.3-0.8,0.5-1.2,0.7-1.8c2.3-7.3,5.3-14.3,8.3-21.3c2.4-5.8,5-11.5,8.3-16.8c7.4-11.8,15.7-22.9,25.3-33
				c5.6-5.9,11.8-11.1,18.1-16.1c6.3-4.9,12.9-9.4,19.7-13.5c7.2-4.3,14.5-8.6,22.2-12.1c10.7-4.7,21.8-8.1,32.9-11.6
				c6.3-2,12.6-3.8,19.1-5c1.5-0.3,3-0.1,4.4-0.4c12.7-2.6,25.5-2,38.3-1.9c5.7,0.1,11.3,1.4,16.9,2c5.8,0.6,11.8,1.7,17.2,4.4
				c2.2,1.1,4.6,1.5,6.9,2.2c9.5,3,18.3,7.6,27.1,12.2c3.8,2,7,4.9,10.6,7.1c8.9,5.4,15.6,13.2,22.8,20.6c0.6,0.6,1.3,1.2,1.9,1.8
				c4.2,3.8,6.8,8.8,10.1,13.2c0.6,0.8,1,1.7,1.7,2.4c4.6,4.7,7.1,10.7,9.9,16.3c4.7,9.1,9.1,18.4,12.3,28.2
				c2.3,6.8,4.9,13.4,6.5,20.4c2.5,10.6,5,21.2,6.9,31.9c1.4,7.8,2.1,15.7,3.5,23.5c0.5,3,0.4,6.1,0.6,9.2c1.2,14.2,2,28.4,1.5,42.7
				c0,7.6,0.3,15.1-0.1,22.6c-0.4,10.1-1.3,20.1-2.1,30.2c-0.6,8.3-2,16.5-3.4,24.7c-1.2,7.5-3.1,14.8-5.1,22.2
				c-1.4,5.2-2.9,10.3-4.8,15.3c-0.7,1.9-0.9,3.9-1.7,5.8c-4.4,10.1-9.6,19.6-16.4,28.3c-4,5.1-8.7,9.5-13.9,13.2
				c-4.5,3.2-9.2,6.5-14.8,7.8c-7.5,1.7-15.1,3-22.8,1.1c-3-0.7-6.2,0-9.4-0.5c-5.8-1-11.4-2.4-17.2-3.4c-5.8-1-11.6-2.3-17.4-3.6
				c-2.3-0.5-4.7-0.4-7.1-0.7c-2.6-0.3-3.5,1.8-4,3.6c-1.5,5.6-3.9,10.8-5.4,16.3c-1.2,4.7-1.7,9.6-2.8,14.3
				c-2.3,10-3.3,20.2-3.6,30.4c-0.2,4.9-1.2,9.7-0.8,14.6c0.8,11.6,0.7,23.3,3.2,34.8c0.7,3-0.5,4.9-3.3,5.7c-2,0.6-4-1.1-5.1-3.6
				c-1.6-3.5-1.2-7.3-1.8-11c-2.5-16.4-1.2-32.9-0.9-49.4c0.1-5.8,1.1-11.8,2.2-17.7c1-5.1,2.5-10.2,3.3-15.4
				c0.4-2.8,1.8-5.4,2.3-8.2c0.8-4.6,2.9-8.9,4-13.4c0.8-3.3-0.7-4.8-3.9-5.6c-6.4-1.6-12.6-3.4-18.9-5.3c-2.5-0.8-5.1-1.7-7.8-2.2
				c-2.1-0.4-4.2-1.2-6.2-2c-2.8-1.1-5.8-1.7-8.4-3.3c-1.4-0.9-3.2-1.2-4.8-1.7c-6.6-2.1-13-4.8-19.4-7.4c-5.5-2.2-11-4.5-16.4-7.1
				c-4-1.9-7.9-4.1-11.9-5.9c-6.4-3-12.3-6.8-18.4-10.3c-3.6-2-7-4.5-10.5-6.5c-5.1-2.9-9.4-6.9-14.4-10c-2-1.2-3.7-2.9-5.5-4.5
				c-0.4-0.3-0.8-0.7-1.3-0.5c-0.7,0.3-0.7,1-0.5,1.5c2.4,9.2,1.1,18.6,2.1,27.9c0.8,8.3,0.3,16.7-0.4,25.1
				c-0.4,5.1-0.1,10.3-1,15.3c-0.9,4.8-1,9.8-2.3,14.6c-0.9,3.2-1.4,6.6-1.7,10c-0.4,4.7-1.6,9.1-3.3,13.4
				c-1.7,4.4-2.7,8.9-4.3,13.3c-1.9,5.2-3.7,10.5-6.5,15.3C265.1,737.8,264.2,739.4,263.3,741.1z M233,511.1c0.2,0.9,2,1,1.6,2
				c-0.7,2,0.7,3.3,1.2,4.8c2.3,6.6,3.6,13.6,7.8,19.5c2.1,3,2.7,7,5.1,9.9c1.7,2.1,3.4,4.2,4.9,6.4c4.7,7.2,9.9,13.9,15.8,20.1
				c4.7,4.9,9.2,10.1,14.6,14.3c3.9,3,7.8,6,11.6,9.1c6.4,5.3,13.2,9.8,20.2,14.1c4.9,3.1,9.8,6.2,15.2,8.4
				c4.7,1.9,8.4,5.4,13.5,6.9c4.5,1.4,8.8,3.9,13,6c4.6,2.3,9.5,4.1,14.3,5.9c3.7,1.4,7.5,2.5,11,4.4c3.6,2,7.6,3.2,11.5,4.1
				c2.4,0.5,4.7,1.2,6.8,2.1c5.5,2.3,11,4.2,16.7,5.5c7.4,1.7,14.9,3.2,22.1,5.6c3.8,1.2,7.8,2.4,11.5,3.1c11.4,2,22.7,4.5,34.1,6.1
				c7.6,1.1,15.1,1.9,22.7,1.8c7.6-0.1,13.8-3.7,19.9-7.5c4.6-2.9,8.3-6.9,11.7-11.2c5.4-6.8,10-14.2,13.4-22.3
				c1.8-4.4,3.4-8.8,5-13.3c0.7-2,2.1-3.9,2.3-5.9c0.7-5.4,2.8-10.4,3.6-15.8c0.2-1.8-0.2-3-2.3-3c-1,0-2,0-3,0
				c-13.3-0.2-26.7,0.5-40-0.4c-2.6-0.2-3.6-1.2-3.6-3.7c0-2.6,1.3-4.1,4.2-4.1c7.1-0.1,14.3,0,21.4,0c0,0,0,0,0,0
				c7.1,0,14.1,0,21.1,0c3.1,0,4.4-1,5-4c0.9-5.3,1.7-10.6,2.5-15.9c0.8-5,1.1-10.2,1.4-15.3c0.9-11.4,1.3-22.8,1.6-34.2
				c0.3-9.9-0.6-19.9-0.7-29.8c-0.2-9.5-1.2-19-1.8-28.5c-0.1-2.2-0.1-4.5-0.6-6.7c-2.3-10.6-3.1-21.4-5.6-31.9
				c-1.4-6.1-2.8-12.2-4.6-18.2c-1.6-5.5-3.7-10.7-5.3-16.2c-1.2-4.1-3.2-7.8-4.5-11.7c-1.5-4.4-3.8-8.4-5.8-12.6
				c-1.8-3.8-4.2-7.4-6.4-11.1c-5.7-9.8-12.5-18.6-20.2-26.7c-8.3-8.8-17.5-16.3-27.9-22.5c-5.5-3.3-11.3-5.9-17.1-8.6
				c-8.4-3.9-17.1-6.2-26-8.3c-7.9-1.8-16-2.4-24-3.3c-10.7-1.3-21.2-0.2-31.6,1.2c-12.7,1.7-25.2,4.9-37.4,9.2
				c-2.8,1-5.8,2-8.4,3.5c-2.6,1.5-5.5,2-8.1,3.3c-3.7,1.8-7.8,2.9-11.5,4.9c-4,2.2-7.7,4.6-11.7,6.7c-7.1,3.8-13.5,8.5-19.9,13.3
				c-8.5,6.4-16,13.9-23.2,21.7c-3.6,3.9-7,7.9-10,12.2c-3.6,5.2-7,10.7-10.1,16.3c-3.8,7-7.4,14.1-10,21.6
				c-3,8.4-5.7,16.8-7.5,25.6c-1.3,6-2.5,12.1-3,18.1c-1,10.8-2,21.8-1.4,32.7c0.4,7.5,0.8,15,1.1,22.6c0.1,1.5,0.1,3,0.7,4.3
				c0.5,1.2,0.6,2.2,0.5,3.5C230.6,503.5,232.3,507.2,233,511.1z"/>
		</g>
		<g>
		</g>
	</g>
</g>
</svg>
