<?xml version="1.0" encoding="iso-8859-1"?>
<!-- Generator: Adobe Illustrator 23.1.1, SVG Export Plug-In . SVG Version: 6.00 Build 0)  -->
<svg version="1.1" id="Layer_1" xmlns="http://www.w3.org/2000/svg" xmlns:xlink="http://www.w3.org/1999/xlink" x="0px" y="0px"
	 viewBox="0 0 768 1024" style="enable-background:new 0 0 768 1024;" xml:space="preserve">
<g>
	<g id="XMLID_1_">
		<g>
			<path style="fill:#1E85BF;" d="M395.368,718.691c-6.34,0.32-12.48-1.21-18.57-2.84c-4.06-1.09-8.21-1.93-12.14-3.39
				c-7.07-2.62-14.24-5.15-20.92-8.59c-6.78-3.49-12.88-8.26-19.53-12.05c-7.5-4.27-13.69-10.11-19.75-16.02
				c-7.14-6.97-13.91-14.37-19.44-22.77c-4.24-6.44-8.71-12.74-12.75-19.3c-2.12-3.46-3.5-7.36-5.26-11.05
				c-1.66-3.46-3.56-6.82-5.04-10.36c-2.38-5.73-4.65-11.51-6.68-17.36c-2.07-5.96-3.85-12.02-5.62-18.07
				c-0.83-2.84-1.31-5.77-1.99-8.65c-0.82-3.51-1.71-7.01-2.49-10.53c-0.33-1.53-0.41-3.11-0.68-4.65
				c-0.99-5.79-2.18-11.54-2.97-17.35c-0.8-5.91-1.29-11.86-1.78-17.81c-0.6-7.1-1.35-14.22-1.51-21.34
				c-0.25-11.03-0.13-22.07-0.04-33.11c0.04-5.07,0.18-10.15,0.63-15.19c0.52-5.77,1.4-11.5,2.2-17.24
				c0.66-4.73,1.3-9.47,2.17-14.16c0.88-4.78,1.71-9.61,3.12-14.25c3-9.82,6.19-19.6,9.65-29.26c1.31-3.67,3.62-6.98,5.43-10.47
				c4.5-8.68,10.14-16.64,16.07-24.34c11.23-14.59,24.45-27.07,40.27-36.7c8.6-5.22,17.49-9.8,26.92-13.24
				c6.96-2.54,13.94-5.1,21.06-7.12c4.32-1.22,8.93-1.45,13.41-2.1c3.28-0.47,6.56-1.19,9.86-1.3c8.71-0.26,17.44-0.83,26.11,0.81
				c4.31,0.82,8.69,1.3,13.01,2.04c2.61,0.45,5.23,0.97,7.77,1.7c5.05,1.45,10.11,2.89,15.05,4.67c9.73,3.49,19.16,7.72,27.97,13.17
				c8.41,5.19,16.57,10.81,23.59,17.8c6.06,6.03,12.06,12.16,17.48,18.75c7.01,8.51,12.72,17.96,17.37,27.99
				c2.72,5.86,5.53,11.7,7.81,17.73c2.19,5.78,3.89,11.76,5.57,17.72c1.52,5.41,2.89,10.89,4.01,16.4c0.99,4.79,1.53,9.67,2.28,14.5
				c2.4,15.38,3.26,30.86,2.55,46.41c0,9.07,0.34,18.16-0.1,27.2c-0.37,7.86-1.6,15.68-2.47,23.51c-0.61,5.53-1.12,11.07-1.93,16.56
				c-0.56,3.83-1.6,7.6-2.36,11.4c-0.78,3.9-1.32,7.85-2.28,11.69c-1.47,5.87-2.99,11.74-4.89,17.47
				c-2.43,7.32-5.15,14.54-7.94,21.73c-4.68,12.07-10.52,23.56-17.43,34.51c-5.57,8.82-11.72,17.23-18.99,24.71
				c-6.61,6.8-13.29,13.58-20.44,19.79c-4.82,4.17-10.39,7.53-15.86,10.87c-5.5,3.35-11.19,6.42-16.98,9.22
				c-3.84,1.86-8,3.05-12.03,4.49c-3.63,1.3-7.23,2.67-10.93,3.74c-3.39,0.97-6.85,1.86-10.34,2.29
				C408.218,717.751,401.798,718.371,395.368,718.691z M376.748,708.171c6.52,1.79,13.38,3.69,20.01,3.44
				c9.12-0.33,18.32-2.06,27.22-4.24c13.85-3.4,26.83-9.39,38.78-17.06c8.35-5.36,16.89-10.75,23.44-18.64
				c4.05-4.89,9.02-8.99,13.19-13.79c3.78-4.36,7.13-9.12,10.47-13.84c2.41-3.43,4.49-7.09,6.73-10.64
				c1.51-2.41,3.29-4.69,4.49-7.24c3.41-7.23,6.67-14.53,9.82-21.87c2.01-4.66,3.97-9.38,5.52-14.21
				c2.06-6.48,3.84-13.06,5.48-19.66c1.68-6.73,3.29-13.5,4.48-20.34c1.84-10.53,3.7-21.08,4.81-31.7
				c1.48-14.04,2.46-28.14,2.1-42.3c-0.14-5.49,0.2-11.01-0.23-16.47c-0.68-8.87-1.5-17.75-2.85-26.53
				c-1.28-8.33-2.93-16.64-5.11-24.77c-2.58-9.59-5.32-19.22-9.08-28.38c-3.83-9.33-8.44-18.47-13.75-27.05
				c-4.72-7.64-10.27-14.97-16.53-21.4c-7.03-7.21-15.09-13.45-23.02-19.7c-4.06-3.2-8.75-5.64-13.31-8.14
				c-3.31-1.81-6.89-3.11-10.31-4.73c-1.56-0.74-2.93-1.97-4.54-2.49c-6.35-2.05-12.76-3.94-19.16-5.83
				c-3.21-0.95-6.43-1.92-9.7-2.63c-3.59-0.78-7.29-1.06-10.86-1.93c-7.19-1.76-14.52-1.84-21.75-1.34
				c-7.13,0.49-14.17,2.15-21.27,3.24c-8.89,1.38-17.34,4.32-25.67,7.56c-3.67,1.42-7.01,3.7-10.7,5.06
				c-8.33,3.08-15.51,8.12-22.56,13.24c-6.45,4.68-12.25,10.26-18.25,15.55c-9.97,8.79-17.11,19.84-23.78,31.11
				c-5.75,9.74-9.95,20.3-12.95,31.27c-2.11,7.72-4.37,15.42-6.1,23.23c-1.76,7.91-3.4,15.88-4.28,23.92
				c-1.36,12.45-2.04,24.97-3.01,37.44c0.94,13.67,1.67,27.27,2.86,40.82c0.81,9.25,2.04,18.46,3.48,27.63
				c1.09,6.94,2.76,13.78,4.24,20.65c1.1,5.09,2.07,10.22,3.53,15.21c1.61,5.5,3.61,10.9,5.63,16.27
				c2.47,6.54,4.82,13.15,7.79,19.47c5.23,11.17,11.2,21.99,18.53,31.93c9.89,13.4,21.04,25.63,34.95,35.07
				c3.82,2.6,7.39,5.62,11.39,7.89c5.99,3.39,12.1,6.64,18.43,9.32C362.308,703.521,369.458,706.171,376.748,708.171z"/>
			<path style="fill:#1E85BF;" d="M398.838,630.291c-3.81,0-7.62,0-11.43,0c3.81,0,7.62-0.01,11.43-0.01
				c8.81,0.01,17.62,0.04,26.42-0.03C416.458,630.321,407.648,630.291,398.838,630.291z"/>
			<path style="fill:#1E85BF;" d="M371.098,622.901c0.66,0.25,1.49,0.06,2.23,0.06c17.54,0.01,35.07,0,52.6,0.04
				c1.38,0,2.99-0.03,4.08,0.62c2.13,1.28,1.6,4.51-0.94,5.8c-1.12,0.58-2.53,0.82-3.81,0.83c-8.8,0.07-17.61,0.04-26.42,0.03
				c-3.81,0-7.62,0.01-11.43,0.01c-4.83,0-9.66-0.01-14.5-0.04c-1.2-0.01-2.4-0.43-3.59-0.71c-2.49-0.56-2.55-2.58-2.05-4.32
				C367.738,623.611,368.768,622.021,371.098,622.901z"/>
		</g>
	</g>
</g>
</svg>
