<?xml version="1.0" encoding="iso-8859-1"?>
<!-- Generator: Adobe Illustrator 23.1.1, SVG Export Plug-In . SVG Version: 6.00 Build 0)  -->
<svg version="1.1" id="Layer_1" xmlns="http://www.w3.org/2000/svg" xmlns:xlink="http://www.w3.org/1999/xlink" x="0px" y="0px"
	 viewBox="0 0 768 1024" style="enable-background:new 0 0 768 1024;" xml:space="preserve">
<g>
	<g id="XMLID_6_">
		<g>
			<path style="fill:#1784C1;" d="M619.81,559.54c1.88,4.47,3.17,9.29,2.88,14.23c-0.45,7.67-1.53,15.32-1.69,22.99
				c-0.11,4.85-1.06,9.44-2.35,13.99c-1.52,5.37-4.68,9.89-8.02,14.32c-3.47,4.63-8.15,7.81-12.94,10.65
				c-4.06,2.39-8.49,4.4-13.52,4.4c-2.53-0.01-5.07,0.84-7.59,0.77c-3.61-0.09-7.39-0.1-10.77-1.17c-5.85-1.85-11.78-3.91-17.03-7
				c-4.18-2.46-7.58-6.39-10.97-10c-5.1-5.43-9.12-11.61-10.85-18.99c-1.1-4.66-2.32-9.32-2.94-14.05
				c-1.39-10.55,1.46-19.85,9.01-27.56c3.31-3.39,6.56-6.84,9.83-10.27c0.78-0.81,1.52-1.67,2.65-2.93c-4.01-0.74-7.46-1.41-10.92-2
				c-6.93-1.18-13.4-3.55-17.28-9.7c-1.97-3.11-3.23-7.06-3.57-10.74c-0.82-8.83,0.9-17.38,5.6-25.03c2.98-4.85,6.47-9.38,9.7-14.08
				c0.39-0.55,0.58-1.25,0.86-1.88c-0.67-0.13-1.4-0.5-2.01-0.36c-7.25,1.62-14.58,2-21.98,1.56c-8.35-0.49-17.14-6.29-17.03-17.08
				c0.09-9.36,2.23-18.25,8.07-25.76c4.1-5.29,8.6-10.28,13.15-15.19c1.94-2.1,4.33-3.9,6.76-5.44c5.1-3.23,10.21-2.2,15.09,0.64
				c2.87,1.68,5.61,3.56,8.36,5.41c3.44,2.32,7.01,4.49,10.23,7.08c6.98,5.62,8.75,13.16,7.39,21.7c-0.72,4.46-2.05,8.67-4.68,12.46
				c-1.18,1.7-0.58,2.83,1.37,2.76c10.68-0.41,19.27,4.28,26.96,11.01c2.99,2.61,6.11,5.28,8.32,8.51c1.78,2.6,2.94,6.02,3.22,9.19
				c1.03,11.61-3.44,21.74-9.4,31.36c-0.4,0.65-0.84,1.65-0.61,2.21c0.21,0.51,1.33,0.95,2.03,0.92
				c10.04-0.45,17.93,4.15,25.03,10.59C614.12,550.64,617.74,554.62,619.81,559.54z M615.01,576.52c1.07-6.86-1.43-14.11-6.04-20.34
				c-4.58-6.18-11.17-9.96-18.72-11.75c-1.58-0.37-3.31-0.4-4.92-0.18c-6.09,0.81-12.19,1.58-18.21,2.76
				c-5.21,1.03-10.34,2.57-14.34,6.39c-4.74,4.52-9.4,9.13-14.13,13.67c-6.78,6.5-8.54,14.6-7.19,23.49
				c0.63,4.14,2.11,8.13,3.04,12.23c1.67,7.3,6.45,12.65,11.38,17.77c3.88,4.02,8.71,6.86,13.97,8.89
				c12.82,4.96,25.36,5.51,37.15-2.69c6.7-4.67,11.94-10.81,14-18.8C613.54,598.08,615.09,587.97,615.01,576.52z M584.92,509.54
				c1.25-5.01,0.55-9.39-2.48-13.09c-4.09-5.01-9.23-8.85-15.01-12.01c-5.62-3.07-11.19-3.67-16.99-1.57
				c-8.54,3.09-14.86,9.15-20.19,16.29c-3.78,5.05-6.68,10.59-7.82,16.86c-0.47,2.6-0.77,5.3-0.63,7.92
				c0.13,2.52,0.45,5.25,1.54,7.46c2.26,4.57,6.78,6.63,11.42,7.61c4.51,0.96,9.23,0.93,15.48,1.47c3.97-0.71,9.46-1.89,15.01-2.61
				c4.5-0.58,7.71-2.96,10-6.5C579.62,524.63,582.94,517.44,584.92,509.54z M550.13,452.66c0.04-4.44-1.6-7.89-5.12-10.49
				c-1.46-1.07-3.02-2-4.53-3.01c-4.26-2.87-8.47-5.82-12.79-8.6c-2.31-1.48-4.93-1.85-7.28-0.17c-2.29,1.64-4.63,3.34-6.45,5.45
				c-3.82,4.45-7.44,9.09-10.9,13.82c-3.48,4.73-5.36,10.24-6.4,15.96c-0.91,4.94,1.9,10.58,5.66,11.68
				c3.45,1.02,7.03,1.6,10.56,2.37c9.66-0.79,18.63-3.06,27.09-7.5c2.72-1.43,5.13-3.04,6.69-5.7
				C549.14,462.21,550.08,457.59,550.13,452.66z"/>
			<path style="fill:#1784C1;" d="M604.03,575.61c0.88,1.06,1.74,2.92,1.37,4.03c-0.38,1.12-2.19,1.89-3.52,2.51
				c-0.75,0.34-1.8,0.06-2.71,0.06c-13.14-0.62-22.6-7.21-29.31-18.15c-1.02-1.67-1.62-3.64-2.17-5.54
				c-0.81-2.81,0.04-4.66,2.17-5.32c2.1-0.66,4.14,0.71,5.26,3.09c1.29,2.75,2.52,5.65,4.41,7.98c5.39,6.66,12.46,10.18,21.16,10.27
				C601.84,574.55,603.39,574.84,604.03,575.61z"/>
			<path style="fill:#1784C1;" d="M603.82,601.83c1.91,1.87,2.07,3.67,0.63,5.26c-1.54,1.71-3.34,1.61-5.52,0.05
				c-6.53-4.67-12.87-9.69-19.78-13.73c-5.67-3.32-11.98-5.61-18.15-7.98c-2.16-0.83-4.75-0.55-7.14-0.78
				c0,0.11-0.01,0.21-0.01,0.32c-1.42,0-2.83-0.04-4.24,0.01c-1.91,0.06-3.59-0.35-4.06-2.46c-0.51-2.33,1.07-3.6,2.9-4.34
				c1.35-0.55,2.9-0.77,4.37-0.81c5.99-0.19,11.66,1.21,17.13,3.59c2.58,1.12,5.4,1.83,7.75,3.31c7.69,4.85,15.22,9.95,22.79,14.99
				C601.66,600.03,602.82,600.86,603.82,601.83z"/>
			<path style="fill:#1784C1;" d="M584.09,616.91c1.14,2.41,0.26,4.39-2.48,6.22c-2.1,1.4-3.8,0.39-4.93-1.22
				c-1.58-2.25-2.75-4.79-4.13-7.18c-1.92-3.3-4.35-5.93-7.65-8.13c-4.97-3.33-10.29-4.64-16.06-5.12
				c-2.89-0.24-4.82-2.14-4.47-4.24c0.42-2.57,2.18-4.79,5.34-4.81c0.25,0,0.5,0,0.9,0c12.27,0.99,22.55,5.84,29.4,16.65
				C581.58,611.56,582.84,614.25,584.09,616.91z"/>
			<path style="fill:#1784C1;" d="M570.57,513.49c2.15,2.04,2.23,3.74,0.53,5.62c-1.39,1.53-4.03,1.66-5.86-0.03
				c-4.44-4.11-9.65-6.97-15.08-9.47c-2.08-0.95-4.39-1.4-6.59-2.09c-0.03,0.16-0.06,0.31-0.09,0.47c-1.31,0-2.8,0.39-3.89-0.1
				c-1.29-0.58-2.71-1.73-3.2-2.97c-0.66-1.68,0.48-3.1,2.13-4.02c3.45-1.94,7.02-1.19,10.39-0.14
				C557.08,503.32,564.34,507.58,570.57,513.49z"/>
			<path style="fill:#1784C1;" d="M502.7,395.41c5.79,5.45,10.25,11.66,8.23,20.32c-0.37,1.58-1.04,3.19-1.96,4.51
				c-8.72,12.49-19.27,22.82-34.14,27.7c-6.51,2.15-13.75-0.78-16.64-6.57c-2.07-4.16-2.51-8.71-2.51-13.31c0.01-0.58,0-1.16,0-1.74
				c0.26-11.16,2.56-21.81,7.25-32.01c1.85-4.03,3.95-7.38,8.19-9.11c4.29-1.76,8.72-1.49,12.95-0.37
				C491.14,386.7,497.39,390.4,502.7,395.41z M501.45,418.13c3.16-4.06,3.37-8.24,0.14-12.28c-1.95-2.44-4.05-4.85-6.47-6.8
				c-5.17-4.17-10.89-7.29-17.82-7.4c-2.73,0.01-4.96,0.83-6.31,3.47c-6.29,12.3-8.48,25.4-7.25,39.04
				c0.41,4.46,3.27,7.44,7.59,6.73c2.48-0.4,4.96-1.35,7.19-2.53C487.75,433.46,495.08,426.32,501.45,418.13z"/>
			<path style="fill:#1784C1;" d="M456.91,374.04c5.01,5.86,4.94,12.35,1.88,19.07c-2.85,6.27-6.62,11.93-10.72,17.48
				c-4.34,5.87-9.32,10.96-15.12,15.26c-4.9,3.64-10.11,6.73-16.33,6.42c-6.74,0.11-13.79-4.51-15.95-10.58
				c-1.81-5.11-3.46-10.29-4.87-15.53c-0.58-2.17-0.44-4.55-0.45-6.84c-0.05-5.8-0.24-11.61,0.1-17.39
				c0.25-4.15,0.77-8.4,2.04-12.33c1.52-4.74,4.82-8.07,9.97-9.52c10.88-3.05,21.38-1.59,31.74,2.17
				C446.04,364.73,452.14,368.47,456.91,374.04z M452.04,387.31c0.75-1.9,0.58-4.92-0.48-6.6c-1.65-2.62-4.13-5.01-6.78-6.66
				c-5.86-3.67-12.32-6.04-19.2-7.12c-5.54-0.87-11.09-1.28-16.37,1.15c-2.13,0.98-3.98,2.37-4.33,5.04
				c-0.81,6.06-1.7,12.11-2.55,18.17c0.2,0.03,0.4,0.05,0.6,0.08c0.21,12.48,0.97,18.43,5.32,27.31c2.08,4.23,6.63,6.56,11.1,5.21
				c2.44-0.73,4.92-1.74,6.99-3.18C438.41,412.31,446.74,400.9,452.04,387.31z"/>
			<path style="fill:#1784C1;" d="M391.63,390.48c-1.04,7.68-1.58,14.9-3.12,21.9c-1.01,4.55-3.01,9.05-5.4,13.08
				c-3.42,5.77-13.36,8.3-19.56,5.93c-9.78-3.74-17.35-10.32-23.53-18.47c-3.99-5.27-7.57-10.89-10.83-16.64
				c-1.88-3.32-3.28-7.13-3.93-10.88c-0.72-4.21,1.24-8.13,3.85-11.43c3.33-4.19,8.14-6.44,12.78-8.79
				c8.51-4.32,17.54-6.7,27.11-6.47c6.09,0.15,12,1.52,16.21,6.33c1.66,1.89,2.86,4.51,3.38,6.98
				C389.89,378.24,390.69,384.57,391.63,390.48z M381.98,403.36c0.72-4.06,0.61-8.26,1-14.4c-0.48-3.58-1.07-9.08-2.05-14.51
				c-0.3-1.72-1.25-3.85-2.6-4.75c-3.94-2.64-8.61-3.87-13.27-3.15c-5.1,0.78-10.16,2.21-15.08,3.81c-4.73,1.53-9.08,3.99-12.77,7.4
				c-3.13,2.89-4.26,7.98-2.45,11.14c2.88,4.99,5.51,10.19,8.91,14.81c5.85,7.95,12.07,15.63,21.9,19.18
				c3.47,1.25,8.57,0.44,10.31-1.96C379.66,415.68,380.9,409.5,381.98,403.36z"/>
			<path style="fill:#1784C1;" d="M330.64,426.33c0.21,0.05,0.41,0.1,0.61,0.15c-0.87,4.27-1.32,8.67-2.69,12.77
				c-2.73,8.12-10.11,11.29-18.22,8.55c-8.13-2.75-15-7.49-21.06-13.35c-3.98-3.86-7.69-8.06-11.08-12.45
				c-5.13-6.62-4.86-14.45,0.16-21.1c5.03-6.68,11.61-11.35,19.16-14.71c4.81-2.15,10.01-2.72,15.14-1.82
				c5.61,0.99,8.6,5.21,10.77,10.14c3.43,7.8,5.32,16.03,6.83,24.36C330.7,421.3,330.53,423.84,330.64,426.33z M323.3,427.89
				c-0.3-3.52-0.37-6.27-0.79-8.97c-1.25-8.07-3.56-15.85-6.93-23.29c-0.99-2.21-2.85-3.89-5.39-3.88
				c-2.62,0.02-5.32,0.27-7.85,0.95c-6.82,1.84-12.09,6.15-16.67,11.34c-5.03,5.69-4.72,9.75-0.2,15.22
				c7.19,8.69,15.07,16.64,25.93,20.83c6.04,2.33,9.27,0.32,10.64-4.37C322.84,432.97,322.97,430.03,323.3,427.89z"/>
			<path style="fill:#1784C1;" d="M295.23,457.21c2.08,5.7,3.69,11.77,0.68,17.93c-2.55,5.22-6.32,8.64-11.99,10.29
				c-7.94,2.32-15.77,1.54-23.63-0.04c-3.14-0.63-3.12-0.72-4.25,0.21c3.15,4.35,6.45,8.56,9.38,13.03
				c6.42,9.78,8.85,20.59,6.49,32.06c-1.52,7.36-6.62,12.23-13.76,14.42c-4.88,1.49-10,2.19-15,3.27c-0.62,0.13-1.21,0.41-2.25,0.77
				c1.16,1.25,2.09,2.25,3.01,3.27c4.12,4.55,8.33,9.02,12.33,13.68c5.62,6.55,7.11,14.55,6.2,22.7c-0.7,6.36-2.31,12.79-4.58,18.78
				c-3.8,10.01-10.51,18.05-19.57,23.88c-14,9.01-28.99,11.68-44.93,6.1c-8.25-2.88-14.29-8.68-19.61-15.52
				c-5.05-6.47-7.02-13.89-8.3-21.7c-0.59-3.57-1.67-7.08-2.02-10.67c-0.43-4.43-0.54-8.93-0.41-13.39
				c0.12-4.03,0.29-8.15,1.24-12.04c1.72-7.06,6.22-12.45,11.5-17.32c5.49-5.06,11.68-8.65,18.94-10.33c1.75-0.4,3.62-0.35,5.44-0.4
				c2.62-0.08,3.05-0.71,1.77-2.92c-1.23-2.15-2.81-4.15-3.7-6.43c-1.36-3.48-2-7.25-3.42-10.7c-2.02-4.88-1.94-9.93-1.63-14.96
				c0.16-2.57,1.11-5.14,2.04-7.58c0.43-1.14,1.56-2.08,2.52-2.96c5.64-5.23,11.11-10.69,18.29-13.94
				c4.53-2.06,9.17-3.39,14.21-3.12c0.99,0.05,2-0.42,3.01-0.66c-0.28-1.06-0.37-2.22-0.85-3.17c-4.04-7.99-5.67-16.28-2.76-24.95
				c1.2-3.59,2.86-6.84,6.66-8.96c5.41-3.02,10.3-6.95,15.49-10.36c1.86-1.23,3.85-2.38,5.95-3.08c4.89-1.63,9.44-0.95,13.6,2.38
				C282.18,433.48,290.45,444.15,295.23,457.21z M283.48,477.35c4.04-1.16,7.22-6.98,5.98-11.35c-1.27-4.51-2.83-9-4.83-13.23
				c-3.99-8.45-9.83-15.5-17.34-21.13c-3.65-2.74-6.32-3-10.21-0.39c-5.65,3.78-11.22,7.67-16.74,11.64
				c-1.15,0.83-2.18,2.07-2.8,3.36c-2.98,6.22-1.57,12.42,1.03,18.24c1.14,2.58,3.33,5.22,5.74,6.61c8.75,5.04,18.27,7.8,28.59,8.54
				C276.43,478.9,280.02,478.34,283.48,477.35z M250.97,539.17c9.05-1.69,14.08-7.85,13.64-16.67c-0.29-5.63-1.92-10.66-4.22-15.7
				c-4.09-9-10.45-15.9-18.76-20.96c-7.49-4.56-15.27-5.29-23.41-1.13c-5.15,2.63-9.13,6.58-13.21,10.4
				c-3.49,3.27-4.55,7.45-3.8,12.29c1.26,8.16,3.94,15.77,8.6,22.52c1.77,2.55,4.33,4.93,7.07,6.35c6.51,3.36,13.76,3.99,22.29,4.53
				C242.28,540.38,246.66,539.97,250.97,539.17z M253.76,590.9c1.09-7.46-0.11-14.42-4.64-20.49c-4.67-6.27-10.32-11.63-16.49-16.43
				c-3.55-2.75-7.16-5.19-11.88-5.76c-4.83-0.58-9.55-2.09-14.38-2.58c-4.19-0.42-8.6-0.65-12.65,0.23
				c-6.84,1.5-11.83,6.29-16.13,11.57c-4.94,6.06-6.81,13.15-6.25,20.93c0.13,2.73,0,5.51,0.45,8.2c1.01,6.03,2.71,11.96,3.37,18.02
				c0.49,4.62,2.37,8.34,4.84,12.02c5.15,7.7,12.13,12.82,21.21,14.77c5.96,1.29,11.85,1.01,17.94-0.45
				c7.57-1.82,14.12-5.11,19.63-10.38C247.24,612.47,252.06,602.47,253.76,590.9z"/>
			<path style="fill:#1784C1;" d="M247.51,501.34c1.62,0.4,2.74,2.14,1.9,3.74c-0.7,1.35-2.3,2.22-3.01,2.85
				c-7.27-1.19-12.26,1.95-17.21,4.99c-2.88,1.78-5.54,3.92-8.31,5.88c-2.19,1.55-4.24,1.51-5.57-0.1c-1.25-1.49-0.8-3.68,1.13-5.36
				c6.95-6.09,14.56-11.05,23.83-12.64C242.59,500.3,245.17,500.77,247.51,501.34z"/>
			<path style="fill:#1784C1;" d="M236.65,577.86c2.55,0.11,3.91,1.87,3.69,4.06c-0.23,2.27-1.43,3.12-4.21,3.05
				c-1.33-0.03-2.66,0-3.99,0c-8.02-0.61-14.79,3.08-21.59,6.5c-7.94,4-15.23,9.04-22.01,14.8c-0.69,0.59-1.53,0.99-2.28,1.51
				c-1.94,1.34-3.49,0.69-4.71-1.01c-1.19-1.67-1-3.09,0.69-4.53c7.04-5.99,14.49-11.35,22.59-15.85
				c6.79-3.77,13.81-6.93,21.45-8.29C229.65,577.5,233.2,577.7,236.65,577.86z"/>
			<path style="fill:#1784C1;" d="M242.32,598.15c-0.99,1.02-1.84,2.29-3.02,2.97c-1,0.58-2.4,0.69-3.62,0.67
				c-7.24-0.12-12.98,2.89-18.03,7.9c-2.83,2.81-5.01,5.78-6.25,9.59c-0.84,2.57-3.81,4.33-5.7,3.9c-2.88-0.64-4.24-3.76-2.86-6.77
				c2.67-5.77,5.7-11.29,10.73-15.46c4.55-3.78,9.62-6.37,15.51-7.25c2.21-0.33,4.41-0.71,6.62-1.07
				C239.15,592.05,241.76,594.19,242.32,598.15z"/>
			<path style="fill:#1784C1;" d="M217.01,553.59c1.98,0.92,2.41,2.97,1.4,5.59c-4.26,11.08-12.27,18.14-23.4,21.75
				c-2.34,0.76-4.89,0.81-7.35,1.19c-0.01-0.06-0.02-0.13-0.03-0.19c-1,0-2,0.05-3-0.02c-1.97-0.13-3.64-0.73-3.83-3.07
				c-0.16-1.95,1.42-3.71,3.6-4.03c1.15-0.16,2.31-0.33,3.46-0.4c11.93-0.69,19.19-7.56,23.75-17.95
				C212.8,553.75,214.85,552.59,217.01,553.59z"/>
		</g>
	</g>
</g>
</svg>
