<?xml version="1.0" encoding="iso-8859-1"?>
<!-- Generator: Adobe Illustrator 23.1.1, SVG Export Plug-In . SVG Version: 6.00 Build 0)  -->
<svg version="1.1" id="Layer_1" xmlns="http://www.w3.org/2000/svg" xmlns:xlink="http://www.w3.org/1999/xlink" x="0px" y="0px"
	 viewBox="0 0 768 1024" style="enable-background:new 0 0 768 1024;" xml:space="preserve">
<g>
	<g id="XMLID_2_">
		<g>
			<path style="fill:#1684C3;" d="M583.44,430.09c2.37,19.07,3.49,38.22,3.02,59.89c0,4.79,0.25,12.05-0.06,19.28
				c-0.44,10.2-0.94,20.42-2.07,30.56c-1.25,11.27-3.11,22.47-4.96,33.66c-0.63,3.82-2.04,7.51-3.08,11.27
				c-1.22,4.37-2.25,8.81-3.7,13.11c-1.65,4.92-3.56,9.76-5.56,14.55c-1.59,3.8-3.25,7.61-5.3,11.18
				c-2.54,4.43-5.42,8.68-8.35,12.88c-4.37,6.28-10.38,10.88-16.63,15.08c-4.87,3.28-10.17,5.63-16,7.09
				c-7.48,1.86-14.77,1.41-22.2,0.21c-9.81-1.57-19.67-2.86-29.47-4.5c-6.19-1.04-12.31-2.49-18.46-3.77
				c-2.52-0.53-3.68,0.19-4.47,2.64c-1.91,5.92-4.05,11.77-5.73,17.75c-1.13,4.05-1.62,8.28-2.41,12.42
				c-0.96,5.03-2.08,10.04-2.84,15.1c-0.68,4.57-1.1,9.2-1.4,13.82c-0.44,6.62-1.12,13.28-0.88,19.9
				c0.41,10.93,0.9,21.89,3.11,32.66c0.41,2.01,0.17,3.78-1.32,5.27c-1.9,1.91-5.57,1.38-6.39-1.17c-1.03-3.21-1.75-6.53-2.32-9.86
				c-0.56-3.25-0.86-6.56-1.12-9.85c-0.15-1.87,0.02-3.77,0.02-5.65c0-8.24,0.45-16.52-0.15-24.72c-0.67-9.22,1.41-18.1,2.24-27.13
				c0.3-3.29,1.65-6.47,2.36-9.73c0.92-4.18,1.49-8.44,2.56-12.57c1.26-4.85,2.88-9.61,4.36-14.4c0.49-1.58,0.89-3.2,1.55-4.7
				c0.83-1.89,0.03-2.85-1.65-3.33c-4.28-1.22-8.57-2.37-12.86-3.57c-4.64-1.29-9.28-2.57-13.91-3.91c-4.5-1.3-8.99-2.63-13.46-4.04
				c-2.19-0.7-4.31-1.63-6.47-2.43c-4.76-1.74-9.58-3.35-14.29-5.22c-4.58-1.83-9.09-3.85-13.59-5.88
				c-6.91-3.12-13.93-6.05-20.65-9.55c-7.72-4.03-15.26-8.43-22.7-12.96c-7.11-4.34-14.02-9.03-20.97-13.63
				c-2.14-1.41-4.08-3.11-6.19-4.57c-0.51-0.36-1.56-0.62-1.93-0.34c-0.56,0.41-1.09,1.39-1,2.04c1.87,13.73,1.78,27.54,1.68,41.33
				c-0.06,8.22-0.26,16.49-1.11,24.66c-0.9,8.7-2.33,17.38-4.13,25.95c-1.46,6.94-3.58,13.76-5.83,20.5
				c-2.17,6.48-4.77,12.83-7.41,19.14c-1.1,2.63-2.73,5.05-4.25,7.49c-0.94,1.52-4.19,2.18-5.81,1.06
				c-1.65-1.14-2.51-2.66-1.44-4.88c2.71-5.65,5.47-11.29,7.81-17.1c1.99-4.94,3.59-10.06,5.06-15.19
				c1.67-5.8,3.33-11.64,4.38-17.58c1.36-7.66,1.86-15.47,3.18-23.14c2.17-12.66,1.31-25.4,1.2-38.1
				c-0.07-9.03-1.07-18.06-1.79-27.09c-0.22-2.79-0.75-5.57-1.38-8.31c-0.28-1.21-0.94-2.51-1.81-3.37
				c-9.11-8.9-17.54-18.39-24.81-28.83c-4.56-6.54-8.85-13.34-12.54-20.4c-2.95-5.64-4.85-11.82-7.12-17.8
				c-1.36-3.6-2.61-7.25-3.74-10.93c-0.58-1.88-0.84-3.86-1.12-5.81c-2.55-17.34-3.74-34.79-2.89-52.28
				c0.44-9.09,1.6-18.18,3.1-27.16c1.51-9.06,3.37-18.12,5.93-26.94c2.45-8.45,5.39-16.82,9.84-24.54c1.1-1.9,1.39-4.27,2.49-6.18
				c2.29-3.99,4.74-7.91,7.38-11.69c3.84-5.49,7.75-10.96,11.91-16.2c6.26-7.88,13.49-14.83,21.01-21.51
				c6.58-5.84,13.94-10.55,21.09-15.57c8.01-5.63,16.56-10.27,25.56-14.08c8.82-3.72,17.55-7.77,26.62-10.77
				c8.22-2.71,16.82-4.33,25.29-6.21c14.71-3.26,29.66-3.7,44.61-2.95c9.58,0.49,19.1,1.96,28.39,4.59
				c5.47,1.55,11.06,2.77,16.36,4.76c5.76,2.16,11.45,4.67,16.79,7.68c7.18,4.05,14.18,8.46,20.91,13.21
				c4.55,3.21,8.66,7.1,12.68,10.99c4.2,4.07,8.39,8.23,11.99,12.82c4.97,6.34,9.42,13.1,14.01,19.73c1.56,2.24,3.06,4.56,4.31,6.99
				c2.59,5.03,5.2,10.07,7.42,15.27c2.99,7.05,5.84,14.18,8.33,21.42c2,5.78,3.5,11.75,4.97,17.69c1.6,6.42,3.18,12.88,4.3,19.4
				C581.08,412.01,582.32,421.05,583.44,430.09z M577.82,499.44c0.15-10.72,0.37-21.46-0.2-32.15c-0.46-8.49,0.39-17.14-2.11-25.47
				c0.63-12.23-3.34-23.9-4.49-35.93c-0.63-6.57-2.64-13.04-4.35-19.47c-2-7.56-4.35-15.03-6.56-22.54
				c-0.52-1.79-0.68-3.82-1.66-5.3c-1.9-2.86-3.12-5.87-4.25-9.11c-1.77-5.06-4.12-9.99-6.83-14.62
				c-4.42-7.53-9.11-14.92-14.12-22.07c-3.22-4.59-6.91-8.94-10.9-12.89c-7.06-6.99-14.31-13.84-22.82-19.12
				c-5.47-3.39-10.88-6.98-16.66-9.78c-5.5-2.68-11.42-4.47-17.18-6.61c-2.38-0.89-4.74-1.95-7.2-2.44
				c-6.72-1.34-13.45-2.65-20.24-3.52c-7.67-0.98-15.4-1.72-23.13-2.08c-3.58-0.16-7.22,1.24-10.83,1.24
				c-9.51,0.01-18.59,2.61-27.79,4.35c-5.66,1.07-11.17,3.09-16.65,4.98c-7,2.42-14.01,4.9-20.82,7.83
				c-5.68,2.44-11.13,5.46-16.56,8.44c-3.96,2.18-7.81,4.6-11.55,7.14c-5.79,3.93-11.57,7.88-17.11,12.13
				c-3.4,2.61-6.23,5.94-9.53,8.7c-7.77,6.52-14.03,14.46-19.93,22.53c-5.29,7.23-10.28,14.82-13.65,23.28
				c-2.26,5.68-4.8,11.24-6.98,16.95c-1.39,3.62-2.45,7.38-3.49,11.12c-1.76,6.38-3.63,12.74-4.98,19.21
				c-0.98,4.68-1.4,9.52-1.69,14.31c-0.54,8.62-0.89,17.26-1.13,25.9c-0.09,3.64,0.25,7.3,0.52,10.95
				c0.48,6.78,0.9,13.57,1.66,20.32c0.5,4.5,1.18,9.05,2.46,13.37c1.91,6.42,4.22,12.73,6.72,18.94
				c3.49,8.69,7.57,17.12,13.32,24.57c5.65,7.34,11.26,14.76,17.46,21.62c10.56,11.66,22.87,21.39,35.86,30.18
				c7.11,4.82,14.53,9.22,21.97,13.54c5.01,2.9,10.24,5.42,15.44,7.98c5.04,2.48,10.14,4.83,15.26,7.14c2.61,1.18,5.33,2.16,8,3.21
				c3.46,1.35,6.92,2.68,10.38,4.05c4.03,1.59,8.01,3.32,12.1,4.77c4.28,1.52,8.65,2.79,13,4.12c7.18,2.21,14.35,4.45,21.56,6.56
				c4.46,1.3,8.99,2.36,13.48,3.54c3.29,0.86,6.55,1.83,9.85,2.61c3.26,0.77,6.57,1.37,9.85,2.05c4.11,0.86,8.19,1.92,12.33,2.56
				c10.05,1.55,20.12,3.08,30.21,4.31c6.87,0.84,13.78,0.79,20.29-2.09c8.07-3.56,14.96-8.73,20.62-15.53
				c5.99-7.21,10.34-15.4,14.2-23.87c0.88-1.94,1.24-4.12,2.16-6.03c3.05-6.33,5.06-12.96,6.3-19.86c0.47-2.6,0.97-5.21,1.75-7.72
				c1-3.21,0.7-3.82-2.71-3.83c-6.57-0.03-13.15-0.01-19.72-0.01c0,0,0,0,0,0.01c-3.75,0-7.49,0.05-11.24-0.02
				c-3.82-0.06-7.65-0.06-11.44-0.42c-2.83-0.27-3.33-1.34-3.14-4.74c0.14-2.46,1.71-3.36,3.82-3.35
				c14.14,0.04,28.28,0.1,42.42,0.26c3.45,0.04,4.61-0.61,5.25-4.06c0.85-4.63,1.62-9.27,2.3-13.93c0.31-2.09,0.35-4.23,0.47-6.35
				c0.11-2.16,0.08-4.33,0.26-6.48c0.38-4.59,0.93-9.16,1.25-13.75C577.17,512.53,577.72,505.99,577.82,499.44z"/>
		</g>
	</g>
</g>
</svg>
