<?xml version="1.0" encoding="utf-8"?>
<!-- Generator: Adobe Illustrator 23.1.1, SVG Export Plug-In . SVG Version: 6.00 Build 0)  -->
<svg version="1.1" id="Layer_1" xmlns="http://www.w3.org/2000/svg" xmlns:xlink="http://www.w3.org/1999/xlink" x="0px" y="0px"
	 viewBox="0 0 768 1024" style="enable-background:new 0 0 768 1024;" xml:space="preserve">
<style type="text/css">
	.st0{fill:#1E85BF;}
	.st1{fill:none;stroke:#1E85BF;stroke-width:7;stroke-miterlimit:10;}
</style>
<g>
	<g>
		<path class="st0" d="M395.4,718.7c-6.3,0.3-12.5-1.2-18.6-2.8c-4.1-1.1-8.2-1.9-12.1-3.4c-7.1-2.6-14.2-5.2-20.9-8.6
			c-6.8-3.5-12.9-8.3-19.5-12c-7.5-4.3-13.7-10.1-19.8-16c-7.1-7-13.9-14.4-19.4-22.8c-4.2-6.4-8.7-12.7-12.8-19.3
			c-2.1-3.5-3.5-7.4-5.3-11c-1.7-3.5-3.6-6.8-5-10.4c-2.4-5.7-4.6-11.5-6.7-17.4c-2.1-6-3.9-12-5.6-18.1c-0.8-2.8-1.3-5.8-2-8.7
			c-0.8-3.5-1.7-7-2.5-10.5c-0.3-1.5-0.4-3.1-0.7-4.7c-1-5.8-2.2-11.5-3-17.3c-0.8-5.9-1.3-11.9-1.8-17.8
			c-0.6-7.1-1.4-14.2-1.5-21.3c-0.2-11-0.1-22.1,0-33.1c0-5.1,0.2-10.1,0.6-15.2c0.5-5.8,1.4-11.5,2.2-17.2
			c0.7-4.7,1.3-9.5,2.2-14.2c0.9-4.8,1.7-9.6,3.1-14.2c3-9.8,6.2-19.6,9.6-29.3c1.3-3.7,3.6-7,5.4-10.5c4.5-8.7,10.1-16.6,16.1-24.3
			c11.2-14.6,24.5-27.1,40.3-36.7c8.6-5.2,17.5-9.8,26.9-13.2c7-2.5,13.9-5.1,21.1-7.1c4.3-1.2,8.9-1.5,13.4-2.1
			c3.3-0.5,6.6-1.2,9.9-1.3c8.7-0.3,17.4-0.8,26.1,0.8c4.3,0.8,8.7,1.3,13,2c2.6,0.5,5.2,1,7.8,1.7c5,1.5,10.1,2.9,15,4.7
			c9.7,3.5,19.2,7.7,28,13.2c8.4,5.2,16.6,10.8,23.6,17.8c6.1,6,12.1,12.2,17.5,18.8c7,8.5,12.7,18,17.4,28
			c2.7,5.9,5.5,11.7,7.8,17.7c2.2,5.8,3.9,11.8,5.6,17.7c1.5,5.4,2.9,10.9,4,16.4c1,4.8,1.5,9.7,2.3,14.5
			c2.4,15.4,3.3,30.9,2.5,46.4c0,9.1,0.3,18.2-0.1,27.2c-0.4,7.9-1.6,15.7-2.5,23.5c-0.6,5.5-1.1,11.1-1.9,16.6
			c-0.6,3.8-1.6,7.6-2.4,11.4c-0.8,3.9-1.3,7.8-2.3,11.7c-1.5,5.9-3,11.7-4.9,17.5c-2.4,7.3-5.2,14.5-7.9,21.7
			c-4.7,12.1-10.5,23.6-17.4,34.5c-5.6,8.8-11.7,17.2-19,24.7c-6.6,6.8-13.3,13.6-20.4,19.8c-4.8,4.2-10.4,7.5-15.9,10.9
			c-5.5,3.3-11.2,6.4-17,9.2c-3.8,1.9-8,3-12,4.5c-3.6,1.3-7.2,2.7-10.9,3.7c-3.4,1-6.9,1.9-10.3,2.3
			C408.2,717.8,401.8,718.4,395.4,718.7z M376.7,708.2c6.5,1.8,13.4,3.7,20,3.4c9.1-0.3,18.3-2.1,27.2-4.2
			c13.9-3.4,26.8-9.4,38.8-17.1c8.4-5.4,16.9-10.8,23.4-18.6c4-4.9,9-9,13.2-13.8c3.8-4.4,7.1-9.1,10.5-13.8
			c2.4-3.4,4.5-7.1,6.7-10.6c1.5-2.4,3.3-4.7,4.5-7.2c3.4-7.2,6.7-14.5,9.8-21.9c2-4.7,4-9.4,5.5-14.2c2.1-6.5,3.8-13.1,5.5-19.7
			c1.7-6.7,3.3-13.5,4.5-20.3c1.8-10.5,3.7-21.1,4.8-31.7c1.5-14,2.5-28.1,2.1-42.3c-0.1-5.5,0.2-11-0.2-16.5
			c-0.7-8.9-1.5-17.8-2.8-26.5c-1.3-8.3-2.9-16.6-5.1-24.8c-2.6-9.6-5.3-19.2-9.1-28.4c-3.8-9.3-8.4-18.5-13.8-27
			c-4.7-7.6-10.3-15-16.5-21.4c-7-7.2-15.1-13.5-23-19.7c-4.1-3.2-8.8-5.6-13.3-8.1c-3.3-1.8-6.9-3.1-10.3-4.7
			c-1.6-0.7-2.9-2-4.5-2.5c-6.4-2-12.8-3.9-19.2-5.8c-3.2-1-6.4-1.9-9.7-2.6c-3.6-0.8-7.3-1.1-10.9-1.9c-7.2-1.8-14.5-1.8-21.8-1.3
			c-7.1,0.5-14.2,2.1-21.3,3.2c-8.9,1.4-17.3,4.3-25.7,7.6c-3.7,1.4-7,3.7-10.7,5.1c-8.3,3.1-15.5,8.1-22.6,13.2
			c-6.5,4.7-12.2,10.3-18.2,15.5c-10,8.8-17.1,19.8-23.8,31.1c-5.8,9.7-10,20.3-13,31.3c-2.1,7.7-4.4,15.4-6.1,23.2
			c-1.8,7.9-3.4,15.9-4.3,23.9c-1.4,12.5-2,25-3,37.4c0.9,13.7,1.7,27.3,2.9,40.8c0.8,9.2,2,18.5,3.5,27.6
			c1.1,6.9,2.8,13.8,4.2,20.7c1.1,5.1,2.1,10.2,3.5,15.2c1.6,5.5,3.6,10.9,5.6,16.3c2.5,6.5,4.8,13.2,7.8,19.5
			c5.2,11.2,11.2,22,18.5,31.9c9.9,13.4,21,25.6,35,35.1c3.8,2.6,7.4,5.6,11.4,7.9c6,3.4,12.1,6.6,18.4,9.3
			C362.3,703.5,369.5,706.2,376.7,708.2z"/>
		<path class="st0" d="M398.8,630.3c-3.8,0-7.6,0-11.4,0C391.2,630.3,395,630.3,398.8,630.3c8.8,0,17.6,0,26.4,0
			C416.5,630.3,407.6,630.3,398.8,630.3z"/>
		<path class="st0" d="M350.1,622.5c1.1,0.2,2.5,0.1,3.8,0.1c30,0,59.9,0,89.9,0c2.4,0,5.1,0,7,0.5c3.6,1.1,2.7,3.8-1.6,4.9
			c-1.9,0.5-4.3,0.7-6.5,0.7c-15,0.1-30.1,0-45.2,0c-6.5,0-13,0-19.5,0c-8.3,0-16.5,0-24.8,0c-2.1,0-4.1-0.4-6.1-0.6
			c-4.3-0.5-4.4-2.2-3.5-3.7C344.4,623.1,346.2,621.8,350.1,622.5z"/>
		<g id="XMLID_1_">
			<g>
			</g>
			<g>
				<path class="st1" d="M456.5,609.3c0,0-26.9,49-58.9,49s-57.9-48.6-57.9-48.6s25.9-7.5,57.9-7.5S456.5,609.3,456.5,609.3z"/>
			</g>
		</g>
	</g>
</g>
</svg>
