<?xml version="1.0" encoding="iso-8859-1"?>
<!-- Generator: Adobe Illustrator 23.1.1, SVG Export Plug-In . SVG Version: 6.00 Build 0)  -->
<svg version="1.1" id="Layer_1" xmlns="http://www.w3.org/2000/svg" xmlns:xlink="http://www.w3.org/1999/xlink" x="0px" y="0px"
	 viewBox="0 0 768 1024" style="enable-background:new 0 0 768 1024;" xml:space="preserve">
<g>
	<g id="XMLID_4_">
		<g>
			<path style="fill:#1484C3;" d="M342.067,512.26c-1.47,6.67-5.42,11-11.72,12.68c-5.96,1.58-12.17,2.18-16.52,2.92
				c-10.02-0.96-18.17-0.91-25.87-4.8c-3.24-1.63-5.33-3.56-6.32-6.64c-2.34-7.21-3.47-14.66-2.91-22.23
				c0.2-2.77,1.06-5.54,1.97-8.19c2.4-7.01,8.19-9.54,14.84-10.82c8.8-1.69,17.58-1.77,26.49-0.52c8.35,1.16,14.61,4.81,17.72,12.75
				C342.877,495.41,343.977,503.66,342.067,512.26z M395.097,500.8c-3.61,10.54-10.08,19.15-19.14,25.66
				c-1.87,1.35-4.23,2.35-6.49,2.75c-7.78,1.38-15.9-6.16-17.51-12.02c-1.21-4.42-1.63-9.06-2.4-13.6
				c0.92-10.39,1.63-20.54,5.5-30.31c2.84-7.17,7.17-12.54,14.83-14.34c2.87-0.68,6.34-0.92,8.97,0.09c3.12,1.2,6.05,3.59,8.33,6.12
				C396.467,475.48,399.677,487.41,395.097,500.8z M409.977,579.13c-1.8,6.88-4.26,13.42-9.34,18.64c-3.77,3.88-8.38,6.09-13.8,5.77
				c-6.62-0.4-12.57-3.05-17.88-6.88c-9.03-6.52-15.06-14.87-15.04-27.87c-0.04-3.71,0.56-8.75,4.2-12.37
				c2.87-2.86,6.48-5.14,10.1-7.03c3.42-1.79,7.24-2.84,10.94-4.03c6.16-1.98,12.48-4.09,18.97-2.5
				c9.21,2.27,12.51,3.75,13.65,14.59C412.557,564.84,411.837,572,409.977,579.13z M411.767,538.48c5.73,1.27,11.3,0.57,16.77-1.43
				c0.12,0.27,0.23,0.54,0.35,0.81c-3.14,3.32-6.26,6.67-9.49,9.9c-0.18,0.19-1.53-0.39-1.95-0.92c-0.99-1.26-1.64-2.77-2.61-4.04
				c-1.01-1.3-2.23-2.42-3.36-3.62C411.567,538.95,411.667,538.72,411.767,538.48z M446.657,500.09c-3.35,11.5-9.3,21.2-19.25,28.13
				c-1.72,1.19-3.8,2.14-5.84,2.57c-7.78,1.64-12.3-2.01-14.98-9.18c-2.34-6.27-3.33-12.79-3.23-19.49
				c0.42-10.61,1.84-21.07,4.78-31.32c1.66-5.78,3.99-11.28,7.83-15.89c5.7-6.86,9.4-6.74,15.39-3.14
				c9.79,5.88,14.86,15.35,16.74,26.42C449.347,485.54,448.767,492.87,446.657,500.09z M473.327,576.75
				c-0.82,8.41-2.49,16.53-6.83,23.86c-3.41,5.78-7.76,10.43-12.87,10.37c-8.58-0.03-14.09-2.05-18.99-5.78
				c-5.58-4.26-9.74-9.44-11.99-16.29c-2.34-7.16-3.16-14.33-2.28-21.74c1.17-9.84,6.92-16.81,14.31-22.74
				c4.53-3.63,9.73-5.62,15.38-6.94c3.54-0.82,6.83-0.78,10.2,0.24c6.77,2.05,9.83,7.36,11.44,13.6
				C473.857,559.67,474.157,568.16,473.327,576.75z M521.457,556.5c-0.69,14.29-1.21,26.38-7.31,37.5
				c-3.94,7.19-10.89,12.63-20.66,10.43c-6.89-1.55-13.2-8.62-13.71-15.65c-0.48-6.69,0.91-13.03,2.74-19.34
				c2.33-8.04,6.16-15.36,10.94-22.18c4.45-6.35,9.25-12.31,16.78-15.37c1.63-0.66,2.77-0.55,4.16,0.27
				c3.15,1.85,4.51,4.98,5.07,8.19C520.517,546.37,520.987,552.49,521.457,556.5z M545.397,500.98c-0.65,6.05-1.79,12.08-6.29,16.62
				c-1.25,1.27-3.39,2.17-5.18,2.29c-3.92,0.27-7.19-1.77-10.02-4.29c-8.62-7.67-14.13-17.23-17.04-28.35
				c-0.9-3.43-1.94-6.83-2.86-10.03c-1.42,9.1-2.44,18.51-4.5,27.68c-1.15,5.15-3.47,10.26-6.24,14.79
				c-3.99,6.52-11.03,8.18-18.18,5.27c-6.05-2.46-11.16-6.27-15.11-11.42c-1.62-2.12-3.15-4.65-3.67-7.21
				c-1.12-5.51-1.98-11.14-2.19-16.75c-0.46-12.03-0.15-24.01,3.17-35.79c1.46-5.17,3.24-9.95,6.33-14.38
				c5.14-7.36,14.6-9.17,22.43-4.09c3.95,2.56,6.64,6.19,8.92,10.19c3.18,5.59,5.53,11.47,6.62,17.83c0.45,2.63,1.13,5.21,1.7,7.81
				c0.27-0.04,0.55-0.08,0.82-0.12c0.23-4.97,0.51-9.93,0.66-14.89c0.14-4.24,0.08-8.47,1.74-12.5c1.49-3.62,3.06-7.05,7.63-7.65
				c7.72-1.01,14.21,1.35,19.62,6.88c7.22,7.38,9.73,16.86,11.24,26.56c0.95,6.04,0.94,12.25,1.04,18.38
				C546.107,492.2,545.867,496.61,545.397,500.98z M554.027,540.6c-0.64,6.99-1.01,14.04-2.2,20.95c-1.19,6.9-2.97,13.74-5.01,20.44
				c-1.1,3.64-3.12,7.03-5,10.38c-2.98,5.32-11.95,5.63-14.82-1.24c-1.05-2.53-1.37-5.37-1.84-7.34c1.23-10.45,1.3-20.2,5.37-29.28
				c3.48-7.77,8.12-14.59,15.08-19.69c4.25-3.11,6.47-2.42,7.94,2.6C553.847,538.44,554.117,539.56,554.027,540.6z M607.197,500.16
				c-2.66,0.58-3.42-0.24-3.24-2.99c0.74-11.49-0.29-22.89-2.45-34.16c-1.27-6.64-3.26-13.14-4.86-19.72
				c-1.5-6.15-4.78-11.36-8.44-16.4c-0.77-1.07-1.35-2.28-2.02-3.42c1.39-0.56,2.75-1.24,4.19-1.63c0.75-0.21,1.66,0,2.46,0.17
				c5.16,1.07,8.82,4.27,11.19,8.74c3.83,7.22,6.25,14.96,7.43,23.06c1.38,9.4,2.69,18.81,4,27.97c-0.79,4.41-1.27,8.43-2.27,12.31
				C612.417,497.09,610.467,499.45,607.197,500.16z M594.727,502.85c-1.01,3.66-4.82,5.93-8.59,5.33c-2.25-0.35-4.55-1.1-6.55-2.19
				c-5.53-2.99-10.16-7.1-14.22-11.92c-6.61-7.87-10.89-16.76-12.34-26.93c-0.4-2.78-0.2-5.65-0.61-8.44
				c-0.96-6.71-0.98-13.39,0.39-20.03c0.67-3.24,2.21-6,4.88-8.15c3.17-2.56,6.85-3.39,10.74-4.19c6.01-1.23,12.3,1.28,15.78,6.3
				c4.17,6.01,6.12,12.85,7.83,19.69c2.97,11.93,4.72,24.09,4.89,36.42c0.23,0.05,0.47,0.1,0.7,0.15
				C596.687,493.55,595.987,498.27,594.727,502.85z M570.777,585.07c-2.68,4.75-5.9,6.12-11.1,4.7c-3.82-1.04-5.59-3.39-5.14-7.24
				c0.16-1.44,0.94-2.8,1.31-4.23c2.67-10.2,4.75-20.5,5.75-31.01c0.28-3,0.05-6.05,2.09-8.78c3.17-4.25,6.74-8,11.42-10.53
				c2.93-1.58,4.87-0.93,5.74,2.21c0.75,2.66,0.74,5.53,1.07,8.32c0.14,0.05,0.28,0.1,0.42,0.15c-1.39,8.4-2.72,16.81-4.21,25.2
				C576.807,571.3,574.517,578.44,570.777,585.07z M213.647,562.15c-0.27-0.69-0.88-1.4-1.53-1.71c-0.27-0.12-1.13,0.69-1.55,1.21
				c-4.03,5.1-9.86,5.97-15.63,5.91c-7-0.07-13.85-1.76-20.54-3.88c-6.62-2.09-11.6-5.74-12.67-13.14c-0.34-2.3-0.9-4.61-0.86-6.9
				c0.08-4.46,0.04-9.01,0.96-13.33c0.76-3.59,3.09-6.46,7.35-7.16c10.68-1.74,21.16-0.76,31.54,1.95c6.7,1.75,10.48,6.23,11.66,13
				c0.1,0.57,0.51,1.35,0.96,1.5c0.41,0.14,1.23-0.3,1.58-0.72c2.18-2.63,4.91-4.12,8.33-4.48c10.11-1.05,20.05,0.09,29.91,2.24
				c1.67,0.36,3.81,0.65,4.76,1.79c2.36,2.79,4.79,5.82,6,9.19c1.4,3.89,1.54,8.24,2.22,12.39c-0.19,0.02-0.38,0.05-0.57,0.08
				c0,1.49,0.07,2.99-0.01,4.48c-0.48,8.87-8.32,15.74-17.14,15.06c-2.38-0.18-4.77-0.29-7.16-0.49c-0.81-0.07-1.62-0.25-2.41-0.47
				c-4.7-1.29-9.39-2.67-14.11-3.89c-4.03-1.04-7.35-2.96-9.11-6.87C214.807,566.07,214.397,564.04,213.647,562.15z M275.007,570.03
				c-0.41-5.53-0.63-11.07,1.53-16.45c1.89-4.7,4.59-7.04,9.67-7.15c5.98-0.14,11.96-0.04,17.94-0.04c0.02-0.32,0.03-0.64,0.04-0.97
				c9.02,0.66,18.03,1.43,27.06,1.92c6.07,0.33,10.29,3.37,13.25,8.31c3,5,2.34,10.49,0.9,15.69c-1.26,4.59-3.24,9.02-5.29,13.34
				c-4.07,8.58-10.76,13.37-20.53,13.58c-9.52,0.2-18.8-1.45-28.17-2.69c-5.7-0.76-13.62-9.4-14.62-14.29
				C276.017,577.56,275.287,573.8,275.007,570.03z M590.167,580.62c-1.47,2.75-3.5,5.15-6.81,5.74c-2.76,0.49-3.79-0.75-2.97-3.39
				c0.63-2.04,1.51-4.01,2.1-6.06c1.64-5.69,3.37-11.38,4.71-17.14c0.66-2.85,0.46-5.88,0.78-8.82c0.45-4.02,1.02-8.04,1.54-12.06
				c-0.14-0.01-0.29-0.03-0.43-0.05c0-1.66,0.02-3.32-0.01-4.99c-0.08-4.51,1.63-6.86,5.95-8.07c3.23-0.91,4.77-0.05,4.92,3.38
				c0.2,4.69,0.34,9.46-0.19,14.11c-0.68,5.99-2.16,11.89-3.11,17.86C595.547,568,593.427,574.51,590.167,580.62z M265.327,582.15
				c1.75-1.13,2.9-0.74,3.59,1.28c2.87,8.34,8.83,14.2,15.9,18.99c1.44,0.98,3.71,0.8,5.61,1.06c3.36,0.44,6.72,0.88,10.1,1.18
				c5.95,0.51,11.9,1.06,17.87,1.32c5.82,0.26,11.42-1.08,16.45-4c2.54-1.48,4.6-3.75,6.91-5.62c3.11-2.52,4.31-6.27,6.25-9.54
				c0.12-0.2,0.29-0.38,0.82-1.07c1.51,2.11,3,4,4.29,6.01c3.3,5.15,7.86,9,12.8,12.4c4.67,3.22,9.93,5.13,15.42,6.62
				c10.97,2.98,25.27-3.56,30.03-14.22c0.86-1.93,2.05-3.71,2.93-5.28c3.14,4.79,5.99,9.51,9.21,13.97
				c2.82,3.9,6.87,6.45,11.16,8.53c2.79,1.35,5.68,2.51,8.59,3.6c6.37,2.37,12.34,1.47,18.48-1.46c5.61-2.69,8.83-7.34,12.14-12.09
				c1.59-2.27,2.02-2.4,3.78-0.4c5.23,5.93,11.99,9.17,19.69,9.5c8.5,0.38,15.38-3.59,20.57-10.29c3.43-4.42,3.26-4.31,8.03-1.44
				c7.78,4.69,15.93,4.29,22.77-5.1c1.83-2.51,2.57-2.51,5.09-0.85c5.74,3.79,13.48,3.88,18.95-0.77c1.4-1.19,2.82-1.48,4.61-0.96
				c7,2.05,13.56-0.34,17.71-6.25c5.12-7.28,7.75-15.5,9.23-24.15c1.29-7.59,2.69-15.18,3.64-22.82c0.74-5.92,0.91-11.89-2.1-17.46
				c-2.51-4.65-7.9-6.81-12.97-4.82c-2.08,0.81-3.93,2.19-5.99,3.04c-0.88,0.35-2.23,0.34-3.07-0.09
				c-4.02-2.09-8.23-2.21-11.91,0.01c-3.7,2.22-6.84,5.38-10.18,8.19c-1.22,1.03-2.15,1.71-3.44-0.01
				c-3.14-4.2-9.83-4.69-14.13-2.19c-0.69,0.4-1.37,0.82-2.02,1.25c-4.6,3.04-8.4,6.81-11.73,11.17c-0.6,0.79-0.98,1.74-1.46,2.61
				c-0.29-0.32-0.58-0.64-0.87-0.96c-1.34-3.14-2.49-6.38-4.07-9.39c-4.69-8.93-12.9-9.73-20.88-4.81c-2.17,1.34-4.14,2.85-5.97,4.5
				c-5.48,4.94-9.61,11.07-13.63,17.32c-0.7,1.1-1.51,2.12-2.67,3.75c-0.62-1.25-1.13-2.01-1.39-2.84
				c-1.15-3.56-2.02-7.21-4.41-10.27c-2.13-2.73-4.47-4.95-7.03-6.63c-4.94-3.23-10.71-4.44-17.38-3.33
				c-3.88,0.64-7.67,1.82-11.52,2.71c-0.61,0.14-1.27,0.02-2.49,0.02c2.63-3.14,5.01-5.83,7.22-8.65c1.89-2.41,3.72-4.88,5.32-7.48
				c0.87-1.43,1.35-1.58,2.51-0.39c3.56,3.7,6.9,7.7,10.88,10.89c2.09,1.68,4.25,3.15,6.5,4.33c5.77,3.03,12.1,4.16,19.15,2.1
				c2.51-0.73,4.73-1.88,6.64-3.4c1.91-1.52,3.51-3.41,4.79-5.61c2.27-3.89,3.89-8.16,5.88-12.23c0.47-0.98,1.28-1.79,1.93-2.68
				c0.76,0.67,1.66,1.24,2.26,2.03c3.97,5.25,8.27,10.14,14.06,13.5c4.16,2.41,8.67,3.77,13.38,2.86c1.01-0.19,1.95-0.51,2.84-0.92
				c2.67-1.24,4.83-3.4,6.54-5.97c3.3-4.92,4.94-10.49,5.95-16.23c0.48-2.69,0.35-5.49,0.66-8.23c0.11-0.98,0.7-1.9,1.07-2.85
				c0.74,0.55,1.67,0.97,2.21,1.68c4.35,5.72,9.31,10.84,15.19,15c5.19,3.67,10.87,6.01,17.35,5.61c3.7-0.23,7-1.7,9.27-4.71
				c1.79-2.39,3.47-3.77,6.93-3.42c7.76,0.8,13.13-4.64,15.21-11.43c2.61-8.5,2.1-17.2,0.71-25.89c-0.97-6.05-1.48-12.19-2.7-18.18
				c-1.69-8.27-3.65-16.53-8.07-23.88c-2.62-4.35-5.79-8.48-10.53-10.63c-4.33-1.97-9.06-2.67-13.84-1.57
				c-2.16,0.49-4.43,0.88-6.4,1.83c-4.09,1.97-8.48,1.35-12.73,1.9c-11.64,1.5-19.71,8.73-21.69,20.35
				c-0.14,0.8-0.26,1.61-0.48,2.98c-1.15-0.88-2.13-1.43-2.87-2.21c-3.38-3.56-6.8-7.08-11.46-8.99
				c-7.05-2.88-14.29-5.08-21.59-1.27c-2.67,1.39-4.86,3.89-6.93,6.2c-1.54,1.7-2.51,1.97-4.11,0.19c-1.55-1.72-3.04-3.51-4.77-5.03
				c-5.8-5.09-12.57-7.52-20.24-6.11c-7.21,1.32-12.56,5.44-16.46,11.75c-3.35,5.44-5.73,11.17-7.29,17.31
				c-0.16,0.66-0.71,1.22-1.09,1.82c-0.64-0.42-1.43-0.73-1.92-1.3c-3.63-4.25-7.49-8.15-12.69-10.6
				c-6.86-3.22-14.94-2.32-20.74,3.15c-4.96,4.68-7.41,10.73-10,16.75c-0.77,1.8-1.58,3.58-2.3,5.21
				c-3.19-3.65-6.03-7.38-9.36-10.61c-3.8-3.69-7.81-7.35-13.58-7.67c-9.46-0.53-17.41,2.44-23.42,10.02
				c-3.81,4.81-6.62,10.06-7.92,16.1c-0.4,1.85-1.34,1.58-2.63,0.43c-2.96-2.62-5.76-5.75-9.24-7.34c-4.2-1.92-8.99-2.79-13.61-3.53
				c-7.94-1.28-15.98-1.06-23.83,0.48c-6.93,1.37-14.18,2.46-19.18,8.42c-1.11,1.33-1.91,0.91-2.94-0.35
				c-2.51-3.06-5.03-6.15-7.94-8.81c-1.29-1.17-3.47-1.49-5.32-1.89c-8.94-1.96-18.01-2.89-27.16-2.72
				c-2.64,0.05-5.28,0.49-7.9,0.84c-1.93,0.26-3.52-0.01-4.81-1.68c-3-3.89-7.03-6.67-11.49-8.27c-3.63-1.31-7.74-1.67-11.65-1.76
				c-9.2-0.21-18.4-0.04-27.6,0.08c-0.8,0-1.69,0.59-2.37,1.12c-4.05,3.17-7.81,6.88-8.83,11.96c-0.92,4.58-0.73,9.42-0.68,14.14
				c0.03,3.53,0.21,7.16,1.04,10.57c0.82,3.35,1.85,7.12,4.06,9.56c2.6,2.87,6.41,4.84,9.99,6.57c3.4,1.63,7.11,2.84,10.82,3.56
				c9.19,1.79,18.46,3.96,27.74,0.4c1.8-0.7,2.81-0.01,4.13,1.13c2.92,2.53,5.81,5.32,9.21,7.03c3.32,1.67,7.22,2.37,10.94,3.07
				c4.45,0.84,8.98,1.28,13.49,1.78c7.08,0.8,13.93,0.06,20.08-3.83c1.91-1.21,2.82-0.49,3.42,1.1c2.48,6.52,7.54,10.35,13.71,12.75
				c2.79,1.08,5.92,1.48,8.94,1.76c6.28,0.58,12.59,1.2,18.89,1.2c7.37,0.01,14.68-1.07,21.48-4.12c2.35-1.05,4.43-2.79,6.48-4.42
				c2.86-2.27,3.2-2.26,5.5,0.53c3.45,4.18,7.68,7.87,12.82,9.04c3.04,0.7,6.17,1.18,9.2,0.95c3.59-0.26,7.04-1.5,10.09-4.52
				c4.22-4.2,8.55-8.3,12.85-12.42c0.81-0.76,1.72-1.42,2.94-2.41c2.63,6.66,4.89,13.1,10.65,17.35c-0.02,0.24-0.05,0.49-0.07,0.73
				c-0.91,0.17-1.86,0.58-2.74,0.47c-2.55-0.31-5.06-0.91-7.61-1.26c-6.33-0.87-12.33,0.77-18.3,2.56
				c-2.04,0.62-4.23,0.91-6.13,1.82c-0.15,0.07-0.3,0.14-0.45,0.22c-5.19,2.46-10.3,5.09-15.36,7.8c-1.35,0.72-2.45,1.96-3.58,3.06
				c-1.27,1.23-2.19,1.07-3.2-0.37c-3.12-4.45-7-8.14-12.35-9.57c-3.98-1.06-8.12-1.87-12.22-2.01c-11.8-0.38-23.62-0.5-35.43-0.44
				c-6,0.04-12,0.67-16.48,5.55c-0.35,0.39-1.02,0.48-1.42,0.65c-2.03-3.04-3.74-6.17-5.99-8.85c-2.74-3.27-6.11-5.79-10.64-6.32
				c-8.23-0.95-16.43-2.28-24.68-2.94c-3.73-0.3-7.56,0.72-11.36,0.96c-0.99,0.06-2.4-0.26-2.98-0.94
				c-6.04-7.13-13.97-10.15-23.02-10.74c-6.62-0.43-13.25-0.83-19.88-0.94c-2.87-0.05-5.8,0.46-8.6,1.13
				c-4.98,1.17-10.28,8.28-11.22,13.38c-1.55,8.35-0.66,16.54,1.04,24.65c1.7,8.04,6.62,13.64,14.56,16.13
				c5.04,1.58,10.17,2.98,15.36,3.95c6.94,1.29,13.95,2.2,20.9-0.41c2.16-0.8,4.1-1.01,5.82,1.77c2.42,3.92,6.8,5.68,11.02,7.25
				c7.55,2.82,15.39,4.04,23.43,4.58C252.837,587.6,259.327,586.06,265.327,582.15z M218.957,474.87c1.15-0.81,1.95-1.46,2.83-1.99
				c1.6-0.94,3.16-2.15,4.9-2.63c2.38-0.66,4.92-1.09,7.37-0.98c6.7,0.31,13.44,0.6,20.08,1.54c10.7,1.51,16.83,7.75,16.98,18.84
				c0.05,3.72-0.17,7.45,0.05,11.16c0.46,7.84-6.74,13.55-13.89,13.97c-9.47,0.55-18.52-1.16-27.38-4.14
				c-3.69-1.24-6.96-3.34-8.64-7.05c-0.87-1.92-1.22-4.07-1.89-6.09c-0.19-0.57-0.55-1.35-1.01-1.49c-0.42-0.14-1.26,0.31-1.6,0.74
				c-3.7,4.83-8.84,6.48-14.63,6.6c-9.47,0.2-18.42-2.21-27.08-5.77c-3.16-1.3-5.59-3.75-6.53-7.1c-0.89-3.16-1.41-6.44-1.83-9.71
				c-0.6-4.59-1.15-9.2,0.09-13.83c1.19-4.43,4.57-8.41,7.87-8.76c10.74-1.12,21.43-0.75,31.9,1.97
				c5.27,1.37,10.57,5.14,11.64,12.21C218.297,473.06,218.607,473.73,218.957,474.87z"/>
		</g>
		<g>
		</g>
	</g>
</g>
</svg>
