<?xml version="1.0" encoding="iso-8859-1"?>
<!-- Generator: Adobe Illustrator 23.1.1, SVG Export Plug-In . SVG Version: 6.00 Build 0)  -->
<svg version="1.1" id="Layer_1" xmlns="http://www.w3.org/2000/svg" xmlns:xlink="http://www.w3.org/1999/xlink" x="0px" y="0px"
	 viewBox="0 0 768 1024" style="enable-background:new 0 0 768 1024;" xml:space="preserve">
<g>
	<g id="XMLID_6_">
		<g>
			<path style="fill:#1784C1;" d="M569.86,471.103c2.1,0.66,4.14-0.71,5.26-3.09c1.29-2.75,2.52-5.65,4.41-7.98
				c5.39-6.66,12.46-10.18,21.16-10.27c1.15-0.01,2.7-0.3,3.34-1.07c0.88-1.06,1.74-2.92,1.37-4.03c-0.38-1.12-2.19-1.89-3.52-2.51
				c-0.75-0.34-1.8-0.06-2.71-0.06c-13.14,0.62-22.6,7.21-29.31,18.15c-1.02,1.67-1.62,3.64-2.17,5.54
				C566.88,468.593,567.73,470.443,569.86,471.103z"/>
			<path style="fill:#1784C1;" d="M544.37,427.063c0.42,2.57,2.18,4.79,5.34,4.81c0.25,0,0.5,0,0.9,0
				c12.27-0.99,22.55-5.84,29.4-16.65c1.57-2.48,2.83-5.17,4.08-7.83c1.14-2.41,0.26-4.39-2.48-6.22c-2.1-1.4-3.8-0.39-4.93,1.22
				c-1.58,2.25-2.75,4.79-4.13,7.18c-1.92,3.3-4.35,5.93-7.65,8.13c-4.97,3.33-10.29,4.64-16.06,5.12
				C545.95,423.063,544.02,424.963,544.37,427.063z"/>
			<path style="fill:#1784C1;" d="M549.61,439.323c-1.91-0.06-3.59,0.35-4.06,2.46c-0.51,2.33,1.07,3.6,2.9,4.34
				c1.35,0.55,2.9,0.77,4.37,0.81c5.99,0.19,11.66-1.21,17.13-3.59c2.58-1.12,5.4-1.83,7.75-3.31c7.69-4.85,15.22-9.95,22.79-14.99
				c1.17-0.77,2.33-1.6,3.33-2.57c1.91-1.87,2.07-3.67,0.63-5.26c-1.54-1.71-3.34-1.61-5.52-0.05c-6.53,4.67-12.87,9.69-19.78,13.73
				c-5.67,3.32-11.98,5.61-18.15,7.98c-2.16,0.83-4.75,0.55-7.14,0.78c0-0.11-0.01-0.21-0.01-0.32
				C552.43,439.333,551.02,439.373,549.61,439.323z"/>
			<path style="fill:#1784C1;" d="M543.48,516.313c-1.31,0-2.8-0.39-3.89,0.1c-1.29,0.58-2.71,1.73-3.2,2.97
				c-0.66,1.68,0.48,3.1,2.13,4.02c3.45,1.94,7.02,1.19,10.39,0.14c8.17-2.56,15.43-6.82,21.66-12.73c2.15-2.04,2.23-3.74,0.53-5.62
				c-1.39-1.53-4.03-1.66-5.86,0.03c-4.44,4.11-9.65,6.97-15.08,9.47c-2.08,0.95-4.39,1.4-6.59,2.09
				C543.54,516.623,543.51,516.473,543.48,516.313z"/>
			<path style="fill:#1784C1;" d="M538.65,457.233c-6.78-6.5-8.54-14.6-7.19-23.49c0.63-4.14,2.11-8.13,3.04-12.23
				c1.67-7.3,6.45-12.65,11.38-17.77c3.88-4.02,8.71-6.86,13.97-8.89c12.82-4.96,25.36-5.51,37.15,2.69
				c6.7,4.67,11.94,10.81,14,18.8c2.54,9.88,4.09,19.99,4.01,31.44c1.07,6.86-1.43,14.11-6.04,20.34
				c-4.58,6.18-11.17,9.96-18.72,11.75c-1.58,0.37-3.31,0.4-4.92,0.18c-6.09-0.81-12.19-1.58-18.21-2.76
				c-5.21-1.03-10.34-2.57-14.34-6.39C548.04,466.383,543.38,461.773,538.65,457.233z M522.43,508.283c-0.47-2.6-0.77-5.3-0.63-7.92
				c0.13-2.52,0.45-5.25,1.54-7.46c2.26-4.57,6.78-6.63,11.42-7.61c4.51-0.96,9.23-0.93,15.48-1.47c3.97,0.71,9.46,1.89,15.01,2.61
				c4.5,0.58,7.71,2.96,10,6.5c4.37,6.74,7.69,13.93,9.67,21.83c1.25,5.01,0.55,9.39-2.48,13.09c-4.09,5.01-9.23,8.85-15.01,12.01
				c-5.62,3.07-11.19,3.67-16.99,1.57c-8.54-3.09-14.86-9.15-20.19-16.29C526.47,520.093,523.57,514.553,522.43,508.283z
				 M502.32,547.003c3.45-1.02,7.03-1.6,10.56-2.37c9.66,0.79,18.63,3.06,27.09,7.5c2.72,1.43,5.13,3.04,6.69,5.7
				c2.48,4.26,3.42,8.88,3.47,13.81c0.04,4.44-1.6,7.89-5.12,10.49c-1.46,1.07-3.02,2-4.53,3.01c-4.26,2.87-8.47,5.82-12.79,8.6
				c-2.31,1.48-4.93,1.85-7.28,0.17c-2.29-1.64-4.63-3.34-6.45-5.45c-3.82-4.45-7.44-9.09-10.9-13.82
				c-3.48-4.73-5.36-10.24-6.4-15.96C495.75,553.743,498.56,548.103,502.32,547.003z M505.91,537.613
				c-8.35,0.49-17.14,6.29-17.03,17.08c0.09,9.36,2.23,18.25,8.07,25.76c4.1,5.29,8.6,10.28,13.15,15.19
				c1.94,2.1,4.33,3.9,6.76,5.44c5.1,3.23,10.21,2.2,15.09-0.64c2.87-1.68,5.61-3.56,8.36-5.41c3.44-2.32,7.01-4.49,10.23-7.08
				c6.98-5.62,8.75-13.16,7.39-21.7c-0.72-4.46-2.05-8.67-4.68-12.46c-1.18-1.7-0.58-2.83,1.37-2.76
				c10.68,0.41,19.27-4.28,26.96-11.01c2.99-2.61,6.11-5.28,8.32-8.51c1.78-2.6,2.94-6.02,3.22-9.19
				c1.03-11.61-3.44-21.74-9.4-31.36c-0.4-0.65-0.84-1.65-0.61-2.21c0.21-0.51,1.33-0.95,2.03-0.92
				c10.04,0.45,17.93-4.15,25.03-10.59c3.95-3.58,7.57-7.56,9.64-12.48c1.88-4.47,3.17-9.29,2.88-14.23
				c-0.45-7.67-1.53-15.32-1.69-22.99c-0.11-4.85-1.06-9.44-2.35-13.99c-1.52-5.37-4.68-9.89-8.02-14.32
				c-3.47-4.63-8.15-7.81-12.94-10.65c-4.06-2.39-8.49-4.4-13.52-4.4c-2.53,0.01-5.07-0.84-7.59-0.77
				c-3.61,0.09-7.39,0.1-10.77,1.17c-5.85,1.85-11.78,3.91-17.03,7c-4.18,2.46-7.58,6.39-10.97,10c-5.1,5.43-9.12,11.61-10.85,18.99
				c-1.1,4.66-2.32,9.32-2.94,14.05c-1.39,10.55,1.46,19.85,9.01,27.56c3.31,3.39,6.56,6.84,9.83,10.27
				c0.78,0.81,1.52,1.67,2.65,2.93c-4.01,0.74-7.46,1.41-10.92,2c-6.93,1.18-13.4,3.55-17.28,9.7c-1.97,3.11-3.23,7.06-3.57,10.74
				c-0.82,8.83,0.9,17.38,5.6,25.03c2.98,4.85,6.47,9.38,9.7,14.08c0.39,0.55,0.58,1.25,0.86,1.88c-0.67,0.13-1.4,0.5-2.01,0.36
				C520.64,537.553,513.31,537.173,505.91,537.613z"/>
			<path style="fill:#1784C1;" d="M463.74,590.143c0.41-4.46,3.27-7.44,7.59-6.73c2.48,0.4,4.96,1.35,7.19,2.53
				c9.23,4.9,16.56,12.04,22.93,20.23c3.16,4.06,3.37,8.24,0.14,12.28c-1.95,2.44-4.05,4.85-6.47,6.8
				c-5.17,4.17-10.89,7.29-17.82,7.4c-2.73-0.01-4.96-0.83-6.31-3.47C464.7,616.883,462.51,603.783,463.74,590.143z M458.19,582.933
				c-2.07,4.16-2.51,8.71-2.51,13.31c0.01,0.58,0,1.16,0,1.74c0.26,11.16,2.56,21.81,7.25,32.01c1.85,4.03,3.95,7.38,8.19,9.11
				c4.29,1.76,8.72,1.49,12.95,0.37c7.07-1.87,13.32-5.57,18.63-10.58c5.79-5.45,10.25-11.66,8.23-20.32
				c-0.37-1.58-1.04-3.19-1.96-4.51c-8.72-12.49-19.27-22.82-34.14-27.7C468.32,574.213,461.08,577.143,458.19,582.933z"/>
			<path style="fill:#1784C1;" d="M402.93,632.933c0.21-12.48,0.97-18.43,5.32-27.31c2.08-4.23,6.63-6.56,11.1-5.21
				c2.44,0.73,4.92,1.74,6.99,3.18c12.07,8.4,20.4,19.81,25.7,33.4c0.75,1.9,0.58,4.92-0.48,6.6c-1.65,2.62-4.13,5.01-6.78,6.66
				c-5.86,3.67-12.32,6.04-19.2,7.12c-5.54,0.87-11.09,1.28-16.37-1.15c-2.13-0.98-3.98-2.37-4.33-5.04
				c-0.81-6.06-1.7-12.11-2.55-18.17C402.53,632.983,402.73,632.963,402.93,632.933z M400.67,602.613
				c-1.81,5.11-3.46,10.29-4.87,15.53c-0.58,2.17-0.44,4.55-0.45,6.84c-0.05,5.8-0.24,11.61,0.1,17.39
				c0.25,4.15,0.77,8.4,2.04,12.33c1.52,4.74,4.82,8.07,9.97,9.52c10.88,3.05,21.38,1.59,31.74-2.17
				c6.84-2.48,12.94-6.22,17.71-11.79c5.01-5.86,4.94-12.35,1.88-19.07c-2.85-6.27-6.62-11.93-10.72-17.48
				c-4.34-5.87-9.32-10.96-15.12-15.26c-4.9-3.64-10.11-6.73-16.33-6.42C409.88,591.923,402.83,596.543,400.67,602.613z"/>
			<path style="fill:#1784C1;" d="M365.57,601.413c3.47-1.25,8.57-0.44,10.31,1.96c3.78,5.25,5.02,11.43,6.1,17.57
				c0.72,4.06,0.61,8.26,1,14.4c-0.48,3.58-1.07,9.08-2.05,14.51c-0.3,1.72-1.25,3.85-2.6,4.75c-3.94,2.64-8.61,3.87-13.27,3.15
				c-5.1-0.78-10.16-2.21-15.08-3.81c-4.73-1.53-9.08-3.99-12.77-7.4c-3.13-2.89-4.26-7.98-2.45-11.14
				c2.88-4.99,5.51-10.19,8.91-14.81C349.52,612.643,355.74,604.963,365.57,601.413z M340.02,611.383
				c-3.99,5.27-7.57,10.89-10.83,16.64c-1.88,3.32-3.28,7.13-3.93,10.88c-0.72,4.21,1.24,8.13,3.85,11.43
				c3.33,4.19,8.14,6.44,12.78,8.79c8.51,4.32,17.54,6.7,27.11,6.47c6.09-0.15,12-1.52,16.21-6.33c1.66-1.89,2.86-4.51,3.38-6.98
				c1.3-6.22,2.1-12.55,3.04-18.46c-1.04-7.68-1.58-14.9-3.12-21.9c-1.01-4.55-3.01-9.05-5.4-13.08c-3.42-5.77-13.36-8.3-19.56-5.93
				C353.77,596.653,346.2,603.233,340.02,611.383z"/>
			<path style="fill:#1784C1;" d="M311.4,584.213c6.04-2.33,9.27-0.32,10.64,4.37c0.8,2.75,0.93,5.69,1.26,7.83
				c-0.3,3.52-0.37,6.27-0.79,8.97c-1.25,8.07-3.56,15.85-6.93,23.29c-0.99,2.21-2.85,3.89-5.39,3.88
				c-2.62-0.02-5.32-0.27-7.85-0.95c-6.82-1.84-12.09-6.15-16.67-11.34c-5.03-5.69-4.72-9.75-0.2-15.22
				C292.66,596.353,300.54,588.403,311.4,584.213z M328.56,585.053c-2.73-8.12-10.11-11.29-18.22-8.55
				c-8.13,2.75-15,7.49-21.06,13.35c-3.98,3.86-7.69,8.06-11.08,12.45c-5.13,6.62-4.86,14.45,0.16,21.1
				c5.03,6.68,11.61,11.35,19.16,14.71c4.81,2.15,10.01,2.72,15.14,1.82c5.61-0.99,8.6-5.21,10.77-10.14
				c3.43-7.8,5.32-16.03,6.83-24.36c0.44-2.43,0.27-4.97,0.38-7.46c0.21-0.05,0.41-0.1,0.61-0.15
				C330.38,593.553,329.93,589.153,328.56,585.053z"/>
			<path style="fill:#1784C1;" d="M220.88,505.503c-2.19-1.55-4.24-1.51-5.57,0.1c-1.25,1.49-0.8,3.68,1.13,5.36
				c6.95,6.09,14.56,11.05,23.83,12.64c2.32,0.4,4.9-0.07,7.24-0.64c1.62-0.4,2.74-2.14,1.9-3.74c-0.7-1.35-2.3-2.22-3.01-2.85
				c-7.27,1.19-12.26-1.95-17.21-4.99C226.31,509.603,223.65,507.463,220.88,505.503z"/>
			<path style="fill:#1784C1;" d="M186.26,416.523c-1.94-1.34-3.49-0.69-4.71,1.01c-1.19,1.67-1,3.09,0.69,4.53
				c7.04,5.99,14.49,11.35,22.59,15.85c6.79,3.77,13.81,6.93,21.45,8.29c3.37,0.6,6.92,0.4,10.37,0.24
				c2.55-0.11,3.91-1.87,3.69-4.06c-0.23-2.27-1.43-3.12-4.21-3.05c-1.33,0.03-2.66,0-3.99,0c-8.02,0.61-14.79-3.08-21.59-6.5
				c-7.94-4-15.23-9.04-22.01-14.8C187.85,417.443,187.01,417.043,186.26,416.523z"/>
			<path style="fill:#1784C1;" d="M211.61,467.843c1.19,2.71,3.24,3.87,5.4,2.87c1.98-0.92,2.41-2.97,1.4-5.59
				c-4.26-11.08-12.27-18.14-23.4-21.75c-2.34-0.76-4.89-0.81-7.35-1.19c-0.01,0.06-0.02,0.13-0.03,0.19c-1,0-2-0.05-3,0.02
				c-1.97,0.13-3.64,0.73-3.83,3.07c-0.16,1.95,1.42,3.71,3.6,4.03c1.15,0.16,2.31,0.33,3.46,0.4
				C199.79,450.583,207.05,457.453,211.61,467.843z"/>
			<path style="fill:#1784C1;" d="M211.4,405.023c-0.84-2.57-3.81-4.33-5.7-3.9c-2.88,0.64-4.24,3.76-2.86,6.77
				c2.67,5.77,5.7,11.29,10.73,15.46c4.55,3.78,9.62,6.37,15.51,7.25c2.21,0.33,4.41,0.71,6.62,1.07c3.45,0.58,6.06-1.56,6.62-5.52
				c-0.99-1.02-1.84-2.29-3.02-2.97c-1-0.58-2.4-0.69-3.62-0.67c-7.24,0.12-12.98-2.89-18.03-7.9
				C214.82,411.803,212.64,408.833,211.4,405.023z"/>
			<path style="fill:#1784C1;" d="M220.75,476.083c-4.83,0.58-9.55,2.09-14.38,2.58c-4.19,0.42-8.6,0.65-12.65-0.23
				c-6.84-1.5-11.83-6.29-16.13-11.57c-4.94-6.06-6.81-13.15-6.25-20.93c0.13-2.73,0-5.51,0.45-8.2c1.01-6.03,2.71-11.96,3.37-18.02
				c0.49-4.62,2.37-8.34,4.84-12.02c5.15-7.7,12.13-12.82,21.21-14.77c5.96-1.29,11.85-1.01,17.94,0.45
				c7.57,1.82,14.12,5.11,19.63,10.38c8.46,8.08,13.28,18.08,14.98,29.65c1.09,7.46-0.11,14.42-4.64,20.49
				c-4.67,6.27-10.32,11.63-16.49,16.43C229.08,473.073,225.47,475.513,220.75,476.083z M244.31,553.203
				c8.75-5.04,18.27-7.8,28.59-8.54c3.53,0.74,7.12,1.3,10.58,2.29c4.04,1.16,7.22,6.98,5.98,11.35c-1.27,4.51-2.83,9-4.83,13.23
				c-3.99,8.45-9.83,15.5-17.34,21.13c-3.65,2.74-6.32,3-10.21,0.39c-5.65-3.78-11.22-7.67-16.74-11.64
				c-1.15-0.83-2.18-2.07-2.8-3.36c-2.98-6.22-1.57-12.42,1.03-18.24C239.71,557.233,241.9,554.593,244.31,553.203z M264.61,501.803
				c-0.29,5.63-1.92,10.66-4.22,15.7c-4.09,9-10.45,15.9-18.76,20.96c-7.49,4.56-15.27,5.29-23.41,1.13
				c-5.15-2.63-9.13-6.58-13.21-10.4c-3.49-3.27-4.55-7.45-3.8-12.29c1.26-8.16,3.94-15.77,8.6-22.52c1.77-2.55,4.33-4.93,7.07-6.35
				c6.51-3.36,13.76-3.99,22.29-4.53c3.11,0.42,7.49,0.83,11.8,1.63C260.02,486.823,265.05,492.983,264.61,501.803z M283.92,538.873
				c-7.94-2.32-15.77-1.54-23.63,0.04c-3.14,0.63-3.12,0.72-4.25-0.21c3.15-4.35,6.45-8.56,9.38-13.03
				c6.42-9.78,8.85-20.59,6.49-32.06c-1.52-7.36-6.62-12.23-13.76-14.42c-4.88-1.49-10-2.19-15-3.27c-0.62-0.13-1.21-0.41-2.25-0.77
				c1.16-1.25,2.09-2.25,3.01-3.27c4.12-4.55,8.33-9.02,12.33-13.68c5.62-6.55,7.11-14.55,6.2-22.7c-0.7-6.36-2.31-12.79-4.58-18.78
				c-3.8-10.01-10.51-18.05-19.57-23.88c-14-9.01-28.99-11.68-44.93-6.1c-8.25,2.88-14.29,8.68-19.61,15.52
				c-5.05,6.47-7.02,13.89-8.3,21.7c-0.59,3.57-1.67,7.08-2.02,10.67c-0.43,4.43-0.54,8.93-0.41,13.39
				c0.12,4.03,0.29,8.15,1.24,12.04c1.72,7.06,6.22,12.45,11.5,17.32c5.49,5.06,11.68,8.65,18.94,10.33c1.75,0.4,3.62,0.35,5.44,0.4
				c2.62,0.08,3.05,0.71,1.77,2.92c-1.23,2.15-2.81,4.15-3.7,6.43c-1.36,3.48-2,7.25-3.42,10.7c-2.02,4.88-1.94,9.93-1.63,14.96
				c0.16,2.57,1.11,5.14,2.04,7.58c0.43,1.14,1.56,2.08,2.52,2.96c5.64,5.23,11.11,10.69,18.29,13.94
				c4.53,2.06,9.17,3.39,14.21,3.12c0.99-0.05,2,0.42,3.01,0.66c-0.28,1.06-0.37,2.22-0.85,3.17c-4.04,7.99-5.67,16.28-2.76,24.95
				c1.2,3.59,2.86,6.84,6.66,8.96c5.41,3.02,10.3,6.95,15.49,10.36c1.86,1.23,3.85,2.38,5.95,3.08c4.89,1.63,9.44,0.95,13.6-2.38
				c10.86-8.7,19.13-19.37,23.91-32.43c2.08-5.7,3.69-11.77,0.68-17.93C293.36,543.943,289.59,540.523,283.92,538.873z"/>
		</g>
	</g>
</g>
</svg>
