<?xml version="1.0" encoding="iso-8859-1"?>
<!-- Generator: Adobe Illustrator 23.1.1, SVG Export Plug-In . SVG Version: 6.00 Build 0)  -->
<svg version="1.1" id="Layer_1" xmlns="http://www.w3.org/2000/svg" xmlns:xlink="http://www.w3.org/1999/xlink" x="0px" y="0px"
	 viewBox="0 0 768 1024" style="enable-background:new 0 0 768 1024;" xml:space="preserve">
<g>
	<g id="XMLID_4_">
		<g>
			<path style="fill:#1484C3;" d="M197.95,585.07c2.68,4.75,5.9,6.12,11.1,4.7c3.82-1.04,5.59-3.39,5.14-7.24
				c-0.16-1.44-0.94-2.8-1.31-4.23c-2.67-10.2-4.75-20.5-5.75-31.01c-0.28-3-0.05-6.05-2.09-8.78c-3.17-4.25-6.74-8-11.42-10.53
				c-2.93-1.58-4.87-0.93-5.74,2.21c-0.75,2.66-0.74,5.53-1.07,8.32c-0.14,0.05-0.28,0.1-0.42,0.15c1.39,8.4,2.72,16.81,4.21,25.2
				C191.92,571.3,194.21,578.44,197.95,585.07z M288.95,588.78c0.48-6.69-0.91-13.03-2.74-19.34c-2.33-8.04-6.16-15.36-10.94-22.18
				c-4.45-6.35-9.25-12.31-16.78-15.37c-1.63-0.66-2.77-0.55-4.16,0.27c-3.15,1.85-4.51,4.98-5.07,8.19
				c-1.05,6.02-1.52,12.14-1.99,16.15c0.69,14.29,1.21,26.38,7.31,37.5c3.94,7.19,10.89,12.63,20.66,10.43
				C282.13,602.88,288.44,595.81,288.95,588.78z M302.23,600.61c3.41,5.78,7.76,10.43,12.87,10.37c8.58-0.03,14.09-2.05,18.99-5.78
				c5.58-4.26,9.74-9.44,11.99-16.29c2.34-7.16,3.16-14.33,2.28-21.74c-1.17-9.84-6.92-16.81-14.31-22.74
				c-4.53-3.63-9.73-5.62-15.38-6.94c-3.54-0.82-6.83-0.78-10.2,0.24c-6.77,2.05-9.83,7.36-11.44,13.6
				c-2.16,8.34-2.46,16.83-1.63,25.42C296.22,585.16,297.89,593.28,302.23,600.61z M356.96,538.48c-5.73,1.27-11.3,0.57-16.77-1.43
				c-0.12,0.27-0.23,0.54-0.35,0.81c3.14,3.32,6.26,6.67,9.49,9.9c0.18,0.19,1.53-0.39,1.95-0.92c0.99-1.26,1.64-2.77,2.61-4.04
				c1.01-1.3,2.23-2.42,3.36-3.62C357.16,538.95,357.06,538.72,356.96,538.48z M347.16,530.79c7.78,1.64,12.3-2.01,14.98-9.18
				c2.34-6.27,3.33-12.79,3.23-19.49c-0.42-10.61-1.84-21.07-4.78-31.32c-1.66-5.78-3.99-11.28-7.83-15.89
				c-5.7-6.86-9.4-6.74-15.39-3.14c-9.79,5.88-14.86,15.35-16.74,26.42c-1.25,7.35-0.67,14.68,1.44,21.9
				c3.35,11.5,9.3,21.2,19.25,28.13C343.04,529.41,345.12,530.36,347.16,530.79z M368.09,597.77c3.77,3.88,8.38,6.09,13.8,5.77
				c6.62-0.4,12.57-3.05,17.88-6.88c9.03-6.52,15.06-14.87,15.04-27.87c0.04-3.71-0.56-8.75-4.2-12.37
				c-2.87-2.86-6.48-5.14-10.1-7.03c-3.42-1.79-7.24-2.84-10.94-4.03c-6.16-1.98-12.48-4.09-18.97-2.5
				c-9.21,2.27-12.51,3.75-13.65,14.59c-0.78,7.39-0.06,14.55,1.8,21.68C360.55,586.01,363.01,592.55,368.09,597.77z M416.77,517.19
				c1.21-4.42,1.63-9.06,2.4-13.6c-0.92-10.39-1.63-20.54-5.5-30.31c-2.84-7.17-7.17-12.54-14.83-14.34
				c-2.87-0.68-6.34-0.92-8.97,0.09c-3.12,1.2-6.05,3.59-8.33,6.12c-9.28,10.33-12.49,22.26-7.91,35.65
				c3.61,10.54,10.08,19.15,19.14,25.66c1.87,1.35,4.23,2.35,6.49,2.75C407.04,530.59,415.16,523.05,416.77,517.19z M454.9,527.86
				c10.02-0.96,18.17-0.91,25.87-4.8c3.24-1.63,5.33-3.56,6.32-6.64c2.34-7.21,3.47-14.66,2.91-22.23c-0.2-2.77-1.06-5.54-1.97-8.19
				c-2.4-7.01-8.19-9.54-14.84-10.82c-8.8-1.69-17.58-1.77-26.49-0.52c-8.35,1.16-14.61,4.81-17.72,12.75
				c-3.13,8-4.23,16.25-2.32,24.85c1.47,6.67,5.42,11,11.72,12.68C444.34,526.52,450.55,527.12,454.9,527.86z M493.72,570.03
				c0.41-5.53,0.63-11.07-1.53-16.45c-1.89-4.7-4.59-7.04-9.67-7.15c-5.98-0.14-11.96-0.04-17.94-0.04
				c-0.02-0.32-0.03-0.64-0.04-0.97c-9.02,0.66-18.03,1.43-27.06,1.92c-6.07,0.33-10.29,3.37-13.25,8.31c-3,5-2.34,10.49-0.9,15.69
				c1.26,4.59,3.24,9.02,5.29,13.34c4.07,8.58,10.76,13.37,20.53,13.58c9.52,0.2,18.8-1.45,28.17-2.69
				c5.7-0.76,13.62-9.4,14.62-14.29C492.71,577.56,493.44,573.8,493.72,570.03z M223.33,500.98c0.65,6.05,1.79,12.08,6.29,16.62
				c1.25,1.27,3.39,2.17,5.18,2.29c3.92,0.27,7.19-1.77,10.02-4.29c8.62-7.67,14.13-17.23,17.04-28.35
				c0.9-3.43,1.94-6.83,2.86-10.03c1.42,9.1,2.44,18.51,4.5,27.68c1.15,5.15,3.47,10.26,6.24,14.79c3.99,6.52,11.03,8.18,18.18,5.27
				c6.05-2.46,11.16-6.27,15.11-11.42c1.62-2.12,3.15-4.65,3.67-7.21c1.12-5.51,1.98-11.14,2.19-16.75
				c0.46-12.03,0.15-24.01-3.17-35.79c-1.46-5.17-3.24-9.95-6.33-14.38c-5.14-7.36-14.6-9.17-22.43-4.09
				c-3.95,2.56-6.64,6.19-8.92,10.19c-3.18,5.59-5.53,11.47-6.62,17.83c-0.45,2.63-1.13,5.21-1.7,7.81
				c-0.27-0.04-0.55-0.08-0.82-0.12c-0.23-4.97-0.51-9.93-0.66-14.89c-0.14-4.24-0.08-8.47-1.74-12.5
				c-1.49-3.62-3.06-7.05-7.63-7.65c-7.72-1.01-14.21,1.35-19.62,6.88c-7.22,7.38-9.73,16.86-11.24,26.56
				c-0.95,6.04-0.94,12.25-1.04,18.38C222.62,492.2,222.86,496.61,223.33,500.98z M502.59,560.01c0.19,0.02,0.38,0.05,0.57,0.08
				c0,1.49-0.07,2.99,0.01,4.48c0.48,8.87,8.32,15.74,17.14,15.06c2.38-0.18,4.77-0.29,7.16-0.49c0.81-0.07,1.62-0.25,2.41-0.47
				c4.7-1.29,9.39-2.67,14.11-3.89c4.03-1.04,7.35-2.96,9.11-6.87c0.82-1.84,1.23-3.87,1.98-5.76c0.27-0.69,0.88-1.4,1.53-1.71
				c0.27-0.12,1.13,0.69,1.55,1.21c4.03,5.1,9.86,5.97,15.63,5.91c7-0.07,13.85-1.76,20.54-3.88c6.62-2.09,11.6-5.74,12.67-13.14
				c0.34-2.3,0.9-4.61,0.86-6.9c-0.08-4.46-0.04-9.01-0.96-13.33c-0.76-3.59-3.09-6.46-7.35-7.16c-10.68-1.74-21.16-0.76-31.54,1.95
				c-6.7,1.75-10.48,6.23-11.66,13c-0.1,0.57-0.51,1.35-0.96,1.5c-0.41,0.14-1.23-0.3-1.58-0.72c-2.18-2.63-4.91-4.12-8.33-4.48
				c-10.11-1.05-20.05,0.09-29.91,2.24c-1.67,0.36-3.81,0.65-4.76,1.79c-2.36,2.79-4.79,5.82-6,9.19
				C503.41,551.51,503.27,555.86,502.59,560.01z M221.91,581.99c1.1,3.64,3.12,7.03,5,10.38c2.98,5.32,11.95,5.63,14.82-1.24
				c1.05-2.53,1.37-5.37,1.84-7.34c-1.23-10.45-1.3-20.2-5.37-29.28c-3.48-7.77-8.12-14.59-15.08-19.69
				c-4.25-3.11-6.47-2.42-7.94,2.6c-0.3,1.02-0.57,2.14-0.48,3.18c0.64,6.99,1.01,14.04,2.2,20.95
				C218.09,568.45,219.87,575.29,221.91,581.99z M497.56,500.81c-0.46,7.84,6.74,13.55,13.89,13.97c9.47,0.55,18.52-1.16,27.38-4.14
				c3.69-1.24,6.96-3.34,8.64-7.05c0.87-1.92,1.22-4.07,1.89-6.09c0.19-0.57,0.55-1.35,1.01-1.49c0.42-0.14,1.26,0.31,1.6,0.74
				c3.7,4.83,8.84,6.48,14.63,6.6c9.47,0.2,18.42-2.21,27.08-5.77c3.16-1.3,5.59-3.75,6.53-7.1c0.89-3.16,1.41-6.44,1.83-9.71
				c0.6-4.59,1.15-9.2-0.09-13.83c-1.19-4.43-4.57-8.41-7.87-8.76c-10.74-1.12-21.43-0.75-31.9,1.97
				c-5.27,1.37-10.57,5.14-11.64,12.21c-0.11,0.7-0.42,1.37-0.77,2.51c-1.15-0.81-1.95-1.46-2.83-1.99c-1.6-0.94-3.16-2.15-4.9-2.63
				c-2.38-0.66-4.92-1.09-7.37-0.98c-6.7,0.31-13.44,0.6-20.08,1.54c-10.7,1.51-16.83,7.75-16.98,18.84
				C497.56,493.37,497.78,497.1,497.56,500.81z M174,502.85c1.01,3.66,4.82,5.93,8.59,5.33c2.25-0.35,4.55-1.1,6.55-2.19
				c5.53-2.99,10.16-7.1,14.22-11.92c6.61-7.87,10.89-16.76,12.34-26.93c0.4-2.78,0.2-5.65,0.61-8.44
				c0.96-6.71,0.98-13.39-0.39-20.03c-0.67-3.24-2.21-6-4.88-8.15c-3.17-2.56-6.85-3.39-10.74-4.19c-6.01-1.23-12.3,1.28-15.78,6.3
				c-4.17,6.01-6.12,12.85-7.83,19.69c-2.97,11.93-4.72,24.09-4.89,36.42c-0.23,0.05-0.47,0.1-0.7,0.15
				C172.04,493.55,172.74,498.27,174,502.85z M496.87,544.45c2.03-3.04,3.74-6.17,5.99-8.85c2.74-3.27,6.11-5.79,10.64-6.32
				c8.23-0.95,16.43-2.28,24.68-2.94c3.73-0.3,7.56,0.72,11.36,0.96c0.99,0.06,2.4-0.26,2.98-0.94
				c6.04-7.13,13.97-10.15,23.02-10.74c6.62-0.43,13.25-0.83,19.88-0.94c2.87-0.05,5.8,0.46,8.6,1.13
				c4.98,1.17,10.28,8.28,11.22,13.38c1.55,8.35,0.66,16.54-1.04,24.65c-1.7,8.04-6.62,13.64-14.56,16.13
				c-5.04,1.58-10.17,2.98-15.36,3.95c-6.94,1.29-13.95,2.2-20.9-0.41c-2.16-0.8-4.1-1.01-5.82,1.77c-2.42,3.92-6.8,5.68-11.02,7.25
				c-7.55,2.82-15.39,4.04-23.43,4.58c-7.22,0.49-13.71-1.05-19.71-4.96c-1.75-1.13-2.9-0.74-3.59,1.28
				c-2.87,8.34-8.83,14.2-15.9,18.99c-1.44,0.98-3.71,0.8-5.61,1.06c-3.36,0.44-6.72,0.88-10.1,1.18
				c-5.95,0.51-11.9,1.06-17.87,1.32c-5.82,0.26-11.42-1.08-16.45-4c-2.54-1.48-4.6-3.75-6.91-5.62c-3.11-2.52-4.31-6.27-6.25-9.54
				c-0.12-0.2-0.29-0.38-0.82-1.07c-1.51,2.11-3,4-4.29,6.01c-3.3,5.15-7.86,9-12.8,12.4c-4.67,3.22-9.93,5.13-15.42,6.62
				c-10.97,2.98-25.27-3.56-30.03-14.22c-0.86-1.93-2.05-3.71-2.93-5.28c-3.14,4.79-5.99,9.51-9.21,13.97
				c-2.82,3.9-6.87,6.45-11.16,8.53c-2.79,1.35-5.68,2.51-8.59,3.6c-6.37,2.37-12.34,1.47-18.48-1.46
				c-5.61-2.69-8.83-7.34-12.14-12.09c-1.59-2.27-2.02-2.4-3.78-0.4c-5.23,5.93-11.99,9.17-19.69,9.5
				c-8.5,0.38-15.38-3.59-20.57-10.29c-3.43-4.42-3.26-4.31-8.03-1.44c-7.78,4.69-15.93,4.29-22.77-5.1
				c-1.83-2.51-2.57-2.51-5.09-0.85c-5.74,3.79-13.48,3.88-18.95-0.77c-1.4-1.19-2.82-1.48-4.61-0.96c-7,2.05-13.56-0.34-17.71-6.25
				c-5.12-7.28-7.75-15.5-9.23-24.15c-1.29-7.59-2.69-15.18-3.64-22.82c-0.74-5.92-0.91-11.89,2.1-17.46
				c2.51-4.65,7.9-6.81,12.97-4.82c2.08,0.81,3.93,2.19,5.99,3.04c0.88,0.35,2.23,0.34,3.07-0.09c4.02-2.09,8.23-2.21,11.91,0.01
				c3.7,2.22,6.84,5.38,10.18,8.19c1.22,1.03,2.15,1.71,3.44-0.01c3.14-4.2,9.83-4.69,14.13-2.19c0.69,0.4,1.37,0.82,2.02,1.25
				c4.6,3.04,8.4,6.81,11.73,11.17c0.6,0.79,0.98,1.74,1.46,2.61c0.29-0.32,0.58-0.64,0.87-0.96c1.34-3.14,2.49-6.38,4.07-9.39
				c4.69-8.93,12.9-9.73,20.88-4.81c2.17,1.34,4.14,2.85,5.97,4.5c5.48,4.94,9.61,11.07,13.63,17.32c0.7,1.1,1.51,2.12,2.67,3.75
				c0.62-1.25,1.13-2.01,1.39-2.84c1.15-3.56,2.02-7.21,4.41-10.27c2.13-2.73,4.47-4.95,7.03-6.63c4.94-3.23,10.71-4.44,17.38-3.33
				c3.88,0.64,7.67,1.82,11.52,2.71c0.61,0.14,1.27,0.02,2.49,0.02c-2.63-3.14-5.01-5.83-7.22-8.65c-1.89-2.41-3.72-4.88-5.32-7.48
				c-0.87-1.43-1.35-1.58-2.51-0.39c-3.56,3.7-6.9,7.7-10.88,10.89c-2.09,1.68-4.25,3.15-6.5,4.33c-5.77,3.03-12.1,4.16-19.15,2.1
				c-2.51-0.73-4.73-1.88-6.64-3.4c-1.91-1.52-3.51-3.41-4.79-5.61c-2.27-3.89-3.89-8.16-5.88-12.23c-0.47-0.98-1.28-1.79-1.93-2.68
				c-0.76,0.67-1.66,1.24-2.26,2.03c-3.97,5.25-8.27,10.14-14.06,13.5c-4.16,2.41-8.67,3.77-13.38,2.86
				c-1.01-0.19-1.95-0.51-2.84-0.92c-2.67-1.24-4.83-3.4-6.54-5.97c-3.3-4.92-4.94-10.49-5.95-16.23c-0.48-2.69-0.35-5.49-0.66-8.23
				c-0.11-0.98-0.7-1.9-1.07-2.85c-0.74,0.55-1.67,0.97-2.21,1.68c-4.35,5.72-9.31,10.84-15.19,15c-5.19,3.67-10.87,6.01-17.35,5.61
				c-3.7-0.23-7-1.7-9.27-4.71c-1.79-2.39-3.47-3.77-6.93-3.42c-7.76,0.8-13.13-4.64-15.21-11.43c-2.61-8.5-2.1-17.2-0.71-25.89
				c0.97-6.05,1.48-12.19,2.7-18.18c1.69-8.27,3.65-16.53,8.07-23.88c2.62-4.35,5.79-8.48,10.53-10.63
				c4.33-1.97,9.06-2.67,13.84-1.57c2.16,0.49,4.43,0.88,6.4,1.83c4.09,1.97,8.48,1.35,12.73,1.9c11.64,1.5,19.71,8.73,21.69,20.35
				c0.14,0.8,0.26,1.61,0.48,2.98c1.15-0.88,2.13-1.43,2.87-2.21c3.38-3.56,6.8-7.08,11.46-8.99c7.05-2.88,14.29-5.08,21.59-1.27
				c2.67,1.39,4.86,3.89,6.93,6.2c1.54,1.7,2.51,1.97,4.11,0.19c1.55-1.72,3.04-3.51,4.77-5.03c5.8-5.09,12.57-7.52,20.24-6.11
				c7.21,1.32,12.56,5.44,16.46,11.75c3.35,5.44,5.73,11.17,7.29,17.31c0.16,0.66,0.71,1.22,1.09,1.82c0.64-0.42,1.43-0.73,1.92-1.3
				c3.63-4.25,7.49-8.15,12.69-10.6c6.86-3.22,14.94-2.32,20.74,3.15c4.96,4.68,7.41,10.73,10,16.75c0.77,1.8,1.58,3.58,2.3,5.21
				c3.19-3.65,6.03-7.38,9.36-10.61c3.8-3.69,7.81-7.35,13.58-7.67c9.46-0.53,17.41,2.44,23.42,10.02
				c3.81,4.81,6.62,10.06,7.92,16.1c0.4,1.85,1.34,1.58,2.63,0.43c2.96-2.62,5.76-5.75,9.24-7.34c4.2-1.92,8.99-2.79,13.61-3.53
				c7.94-1.28,15.98-1.06,23.83,0.48c6.93,1.37,14.18,2.46,19.18,8.42c1.11,1.33,1.91,0.91,2.94-0.35c2.51-3.06,5.03-6.15,7.94-8.81
				c1.29-1.17,3.47-1.49,5.32-1.89c8.94-1.96,18.01-2.89,27.16-2.72c2.64,0.05,5.28,0.49,7.9,0.84c1.93,0.26,3.52-0.01,4.81-1.68
				c3-3.89,7.03-6.67,11.49-8.27c3.63-1.31,7.74-1.67,11.65-1.76c9.2-0.21,18.4-0.04,27.6,0.08c0.8,0,1.69,0.59,2.37,1.12
				c4.05,3.17,7.81,6.88,8.83,11.96c0.92,4.58,0.73,9.42,0.68,14.14c-0.03,3.53-0.21,7.16-1.04,10.57
				c-0.82,3.35-1.85,7.12-4.06,9.56c-2.6,2.87-6.41,4.84-9.99,6.57c-3.4,1.63-7.11,2.84-10.82,3.56c-9.19,1.79-18.46,3.96-27.74,0.4
				c-1.8-0.7-2.81-0.01-4.13,1.13c-2.92,2.53-5.81,5.32-9.21,7.03c-3.32,1.67-7.22,2.37-10.94,3.07c-4.45,0.84-8.98,1.28-13.49,1.78
				c-7.08,0.8-13.93,0.06-20.08-3.83c-1.91-1.21-2.82-0.49-3.42,1.1c-2.48,6.52-7.54,10.35-13.71,12.75
				c-2.79,1.08-5.92,1.48-8.94,1.76c-6.28,0.58-12.59,1.2-18.89,1.2c-7.37,0.01-14.68-1.07-21.48-4.12
				c-2.35-1.05-4.43-2.79-6.48-4.42c-2.86-2.27-3.2-2.26-5.5,0.53c-3.45,4.18-7.68,7.87-12.82,9.04c-3.04,0.7-6.17,1.18-9.2,0.95
				c-3.59-0.26-7.04-1.5-10.09-4.52c-4.22-4.2-8.55-8.3-12.85-12.42c-0.81-0.76-1.72-1.42-2.94-2.41
				c-2.63,6.66-4.89,13.1-10.65,17.35c0.02,0.24,0.05,0.49,0.07,0.73c0.91,0.17,1.86,0.58,2.74,0.47c2.55-0.31,5.06-0.91,7.61-1.26
				c6.33-0.87,12.33,0.77,18.3,2.56c2.04,0.62,4.23,0.91,6.13,1.82c0.15,0.07,0.3,0.14,0.45,0.22c5.19,2.46,10.3,5.09,15.36,7.8
				c1.35,0.72,2.45,1.96,3.58,3.06c1.27,1.23,2.19,1.07,3.2-0.37c3.12-4.45,7-8.14,12.35-9.57c3.98-1.06,8.12-1.87,12.22-2.01
				c11.8-0.38,23.62-0.5,35.43-0.44c6,0.04,12,0.67,16.48,5.55C495.8,544.19,496.47,544.28,496.87,544.45z M178.56,580.62
				c1.47,2.75,3.5,5.15,6.81,5.74c2.76,0.49,3.79-0.75,2.97-3.39c-0.63-2.04-1.51-4.01-2.1-6.06c-1.64-5.69-3.37-11.38-4.71-17.14
				c-0.66-2.85-0.46-5.88-0.78-8.82c-0.45-4.02-1.02-8.04-1.54-12.06c0.14-0.01,0.29-0.03,0.43-0.05c0-1.66-0.02-3.32,0.01-4.99
				c0.08-4.51-1.63-6.86-5.95-8.07c-3.23-0.91-4.77-0.05-4.92,3.38c-0.2,4.69-0.34,9.46,0.19,14.11c0.68,5.99,2.16,11.89,3.11,17.86
				C173.18,568,175.3,574.51,178.56,580.62z M161.53,500.16c2.66,0.58,3.42-0.24,3.24-2.99c-0.74-11.49,0.29-22.89,2.45-34.16
				c1.27-6.64,3.26-13.14,4.86-19.72c1.5-6.15,4.78-11.36,8.44-16.4c0.77-1.07,1.35-2.28,2.02-3.42c-1.39-0.56-2.75-1.24-4.19-1.63
				c-0.75-0.21-1.66,0-2.46,0.17c-5.16,1.07-8.82,4.27-11.19,8.74c-3.83,7.22-6.25,14.96-7.43,23.06c-1.38,9.4-2.69,18.81-4,27.97
				c0.79,4.41,1.27,8.43,2.27,12.31C156.31,497.09,158.26,499.45,161.53,500.16z"/>
		</g>
	</g>
</g>
</svg>
