<?xml version="1.0" encoding="iso-8859-1"?>
<!-- Generator: Adobe Illustrator 23.1.1, SVG Export Plug-In . SVG Version: 6.00 Build 0)  -->
<svg version="1.1" id="Layer_1" xmlns="http://www.w3.org/2000/svg" xmlns:xlink="http://www.w3.org/1999/xlink" x="0px" y="0px"
	 viewBox="0 0 768 1024" style="enable-background:new 0 0 768 1024;" xml:space="preserve">
<g>
	<g id="XMLID_3_">
		<g>
			<path style="fill:#1484C4;" d="M644.61,406.87c0.08,4.98,0.3,10.08-0.64,14.92c-1.83,9.46-5.74,16.56-17.37,19.39
				c-0.87,0.21-1.87-0.04-2.72,0.23c-0.96,0.3-2.21,0.71-2.65,1.47c-3.44,5.87-8.61,8.18-15.2,7.86c-1-0.05-2.05-0.2-2.99,0.03
				c-1.02,0.25-2.23,0.64-2.86,1.39c-5.14,6.12-10.53,7.06-18,4.48c-1.24-0.42-2.49-1.14-3.74-1.16c-1.03-0.01-2.46,0.56-3.01,1.36
				c-1.35,1.96-2.31,4.18-3.39,6.31c-5.01,9.91-14.87,12.05-24.41,7.85c-3.39-1.49-6.54-3.55-9.79-5.36
				c-1.61-0.89-2.78-1.07-4.24,0.69c-2.26,2.73-4.66,5.69-7.66,7.39c-4.82,2.72-10.09,4.76-15.87,4.78
				c-8.68,0.02-17.23-0.93-25.59-3.31c-1.49-0.43-2.4-0.13-3.34,1.22c-3.43,4.93-7.81,8.54-13.62,10.69
				c-10.8,4.01-21.94,6.1-33.36,6.17c-9.3,0.06-18.47-1.54-27.49-4.17c-6.35-1.85-11.71-4.9-16.12-9.8
				c-0.39-0.42-2.11-0.43-2.42-0.03c-5.21,6.85-12.71,9.47-20.65,10.96c-7.32,1.37-14.74,2.78-22.15,3.01
				c-9.47,0.29-18.88-1.25-27.98-4.14c-2.29-0.73-4.54-1.58-6.82-2.36c-4.97-1.7-8.9-4.8-11.63-9.24c-1.35-2.2-2.82-2.93-5.34-2.2
				c-7.7,2.27-15.65,3.2-23.64,3.1c-9.92-0.12-18.1-4.21-24.32-12.03c-1.77-2.23-2.69-2.27-4.93-0.59
				c-5.13,3.86-10.87,6.61-17.28,7.11c-6.86,0.53-12.22-2.61-15.71-8.56c-1.51-2.57-2.8-5.28-3.94-8.03
				c-0.62-1.5-1.32-1.88-2.82-1.38c-2.66,0.9-5.33,1.89-8.08,2.44c-5.34,1.08-9.84-0.47-13.17-4.97c-1.2-1.63-2.57-2.3-4.86-2.02
				c-6.83,0.82-12.53-1.26-16.6-7.22c-0.82-1.19-2.59-2.29-4.01-2.42c-10.06-0.85-16.34-7.79-18.45-17.09
				c-1.5-6.67-1.86-13.34-0.99-20.05c0.67-5.11,1.89-10.03,5.21-14.29c3.57-4.57,7.96-6.98,13.82-6.97c1.71,0,3.62-0.54,5.09-1.42
				c5.59-3.34,11.34-2.61,17.11-0.96c1.59,0.46,2.71,0.37,3.82-0.75c6.03-6.1,13.19-5.1,20.46-3.19c1.35,0.35,2.58,1.26,3.94,1.48
				c0.91,0.15,2.21-0.17,2.89-0.78c9.34-8.32,22.54-5.81,30.73,0.66c1.93,1.53,3.59,3.42,5.34,5.17c1.16,1.15,2.26,2.36,3.37,3.52
				c2.52-3.71,4.62-7.28,7.17-10.49c5.6-7.05,15.78-10,24.97-6.51c8.64,3.28,14.8,9.2,20.26,16.16c1.51,1.93,2.42,4.32,3.74,6.41
				c0.59,0.94,1.52,1.66,2.49,2.67c2.07-3.99,3.71-7.52,5.7-10.83c1.9-3.17,3.95-6.32,6.35-9.12c2.79-3.26,5.73-6.54,9.16-9.07
				s7.16-5.01,11.84-4.93c5.13,0.1,10.33-0.41,15.37,0.26c2.91,0.38,5.96,2.11,8.26,4.05c4.2,3.55,8.55,7.25,11.63,11.72
				c3.8,5.5,6.98,11.63,9.3,17.9c2.53,6.85,3.77,14.17,5.59,21.29c0.05,0.22,0.21,0.41,0.66,1.26c0.65-1.25,1.23-2.05,1.5-2.94
				c1.5-5.17,2.95-10.35,4.39-15.53c1.9-6.85,5.76-12.77,8.81-19.09c2.92-6.03,7.63-10.37,12.47-14.43
				c3.52-2.95,7.91-5.06,13.08-4.61c4.39,0.38,8.89-0.32,13.23,0.29c2.87,0.4,5.62,2.1,8.26,3.52c4.73,2.54,8.23,6.57,11.53,10.64
				c2.49,3.08,4.44,6.63,6.41,10.09c1.41,2.47,2.42,5.16,3.7,7.7c0.33,0.66,0.98,1.16,1.48,1.74c0.48-0.51,1.09-0.95,1.42-1.54
				c3.5-6.35,7.45-12.4,13.01-17.11c4.48-3.79,9.42-6.61,15.39-7.96c5.66-1.28,10.86-0.45,15.44,2.17c3.55,2.02,6.18,5.69,9.13,8.71
				c0.78,0.81,1.23,1.96,1.82,2.96c1.71,2.89,2.98,2.9,5.25,0.36c7.81-8.72,17.33-12.16,29.03-9.83c3.19,0.63,5.12,2.88,7.81,3.95
				c1.3,0.52,3.08,0.81,4.31,0.34c6.04-2.29,12.14-2.7,18.26-0.78c1.55,0.48,2.9,1.9,4.1,3.13c1.24,1.27,2.49,1.4,4.06,0.92
				c6.25-1.92,12.31-1.95,18.29,1.29c1.91,1.02,4.37,1.27,6.6,1.4c6.07,0.37,9.67,4.25,12.76,8.75
				C643.84,395.72,644.51,401.3,644.61,406.87z M633.21,427.99c3.59-4.87,3.35-10.78,3.88-18.54c-0.5-2.79-1.1-7.63-2.27-12.33
				c-0.73-2.95-2.86-5.28-5.79-6.46c-2.2-0.9-3.17-0.04-2.92,2.23c0.15,1.31,0.31,2.63,0.46,3.94c1.02,8.85,1.44,17.69-0.09,26.54
				c-0.41,2.36-0.5,4.78-0.65,7.18c-0.09,1.47,0.62,2.49,2.08,1.6C629.82,430.98,631.92,429.74,633.21,427.99z M617.98,429.09
				c1.2-5.82,1.32-11.86,1.88-17.5c-0.59-6.45-0.65-12.66-1.85-18.65c-1.03-5.12-2.18-6.94-8.13-6.6c-0.91,0.05-1.81,0.26-2.71,0.43
				c-2.12,0.4-2.88,1.68-2.55,3.78c0.62,4.02,1.45,8.02,1.69,12.06c0.37,6.03,0.62,12.11,0.33,18.14
				c-0.31,6.44-1.31,12.86-2.01,19.28c-0.18,1.69,0.33,2.94,2.27,2.63c1.58-0.26,3.28-0.58,4.62-1.39
				C616.03,438.55,617.04,433.58,617.98,429.09z M596.29,439.79c2.15-8,2.69-16.19,2.65-24.43c0.06-8.75-0.62-17.4-2.88-25.9
				c-1.16-4.35-3.13-7.01-6.81-7.24c-2.84-0.18-5.79,0.28-8.6,0.89c-2.02,0.44-3.05,1.76-2.38,4.28c1.05,3.99,1.63,8.11,2.36,12.18
				c2.41,13.58,1.62,27.13-0.77,40.6c-1.27,7.16-1.38,7.35,5.72,9.48c0.71,0.21,1.46,0.34,2.2,0.39c3.5,0.21,4.87-0.51,6.25-3.66
				C594.96,444.26,595.69,442.03,596.29,439.79z M574.18,420.47c-0.8-12.11-1.03-21.58-3.71-30.74
				c-2.19-7.52-8.36-11.95-16.53-10.11c-5.19,1.17-8.95,4.44-12.5,8.18c-4.53,4.77-5.52,10.11-4.25,16.48
				c1.4,7.03,2.55,14.2,2.82,21.35c0.37,9.77-0.24,19.58-0.3,29.38c-0.01,0.99,0.63,2.37,1.42,2.9c3.05,2.08,6.09,4.42,9.5,5.67
				c5.38,1.96,10.31,2.73,14.08-4.04c2.71-4.85,5.01-9.84,5.85-15.41C571.87,435.38,573.24,426.64,574.18,420.47z M532.41,436.79
				c0.18-0.01,0.35-0.02,0.52-0.03c-0.51-6.11-1.09-12.21-1.5-18.33c-0.56-8.24-2.12-16.28-4.63-24.13
				c-1.92-6.04-4.2-11.97-9.28-16.17c-1.54-1.28-3.48-2.4-5.41-2.84c-7.24-1.66-13.09,1.37-18.35,6.02
				c-6.28,5.56-10.62,12.45-13.77,20.15c-1.58,3.87-2.66,7.7-1.76,12.07c1.74,8.34,3.42,16.73,4.41,25.18
				c0.98,8.4,1.14,16.89,1.55,25.35c0.15,3.17,0.57,3.83,3.75,4.4c4.98,0.89,9.93,1.98,14.94,2.62c6.39,0.81,12.94,0.22,18.31-3.17
				c6.57-4.16,10.99-10.35,11.21-18.64C532.5,445.11,532.41,440.95,532.41,436.79z M467.58,478.79c6.18-2.34,9.93-10.45,9.13-18.4
				c-0.91-8.99-1.4-18.03-2.59-26.98c-1.03-7.78-2.38-15.57-4.35-23.15c-1.64-6.3-4.07-12.45-6.72-18.41
				c-3.7-8.29-9.06-15.45-16.81-20.5c-5.28-3.45-11.18-4.45-17.21-3.05c-6.82,1.59-11.88,6.12-16.11,11.48
				c-5.06,6.4-8.81,13.65-11.14,21.39c-2.46,8.15-4.49,16.5-5.74,24.91c-1.45,9.74-1.85,19.64-2.7,29.47
				c0.17,0.02,0.34,0.03,0.5,0.05c0,3.58,0.12,7.16-0.03,10.73c-0.12,2.92,1.04,5.29,2.6,7.59c2.81,4.16,6.95,6.04,11.6,7.56
				c8.15,2.66,16.49,4.07,24.95,4.01c6.51-0.05,13.08-0.83,19.48-2.03C457.6,482.5,462.65,480.67,467.58,478.79z M385.49,466.27
				c0.35-5.26-0.3-10.58-0.34-15.87c-0.09-12.08-1.17-24.07-4.19-35.77c-1.9-7.34-4.16-14.62-6.84-21.71
				c-2.48-6.56-6.48-12.35-11.49-17.32c-3.74-3.71-7.79-7.01-13.27-7.73c-5.64-0.74-11.08-0.34-16.17,2.61
				c-5.94,3.44-10.24,8.56-13.8,14.12c-5.57,8.71-9.15,18.41-11.45,28.47c-1.61,7.1-2.83,14.31-3.76,21.53
				c-1.19,9.37-1.92,18.8-2.85,28.2c-0.24,7.35,4.98,14.28,10.27,16.51c12.23,5.16,24.96,7.31,38.16,6.51
				c8.46-0.51,16.77-2.12,24.7-5.19C380.93,478.12,385.02,473.28,385.49,466.27z M299.48,417.99c1.27-5.42,2.1-10.5-0.39-15.92
				c-3.42-7.46-7.24-14.53-13.4-20.13c-3.02-2.75-6.21-5.52-10.3-6.18c-3.34-0.54-7.05-0.74-10.25,0.17
				c-3.98,1.13-6.57,4.67-8.61,8.23c-5.26,9.16-7.22,19.39-8.65,29.63c-1.14,8.2-1.31,16.53-1.92,24.81c0.13,0,0.26,0.01,0.39,0.02
				c0,2.74-0.22,5.51,0.04,8.22c0.44,4.6,0.73,9.3,3.47,13.31c4.91,7.21,11.76,10.65,20.46,10.78c7.43,0.11,14.69-1.03,21.9-2.65
				c1.74-0.4,2.27-1.74,2.38-3.38c0.67-10,1.18-20.03,2.11-30.01C297.24,429.22,298.17,423.54,299.48,417.99z M242.55,400.66
				c0.23-1.76,0.53-3.84-0.17-5.32c-2.61-5.54-6.16-10.38-11.56-13.68c-9.91-6.04-21.04-1.74-23.18,9.46
				c-1.64,8.6-2.44,17.37-3.28,23.57c0.58,8.46,0.51,14.42,1.5,20.2c1.4,8.23,3.52,16.32,7.21,23.93c2.34,4.82,6.8,7.26,12.02,6.12
				c5.17-1.12,9.52-3.82,13.49-7.12c0.78-0.65,1.21-2.19,1.15-3.29c-0.3-5.95-1.16-11.89-1.14-17.84
				c0.03-6.28,0.66-12.58,1.36-18.84C240.6,412.09,241.76,406.4,242.55,400.66z M200.18,387.38c0.62-2.54-0.4-3.89-2.4-4.23
				c-2.91-0.5-5.98-0.8-8.85-0.34c-1.64,0.27-3.38,1.97-4.41,3.47c-1.08,1.58-1.65,3.66-1.94,5.6c-1.17,7.85-2.14,15.74-3.19,23.61
				c0.21,0.03,0.41,0.07,0.62,0.1c0.13,9.4,0.87,18.74,4.05,27.67c2.08,5.82,3.24,7.62,9.79,5.87c0.86-0.23,1.61-0.85,2.46-1.19
				c3.36-1.39,3.49-1.76,2.93-5.33c-0.95-6.14-2.15-12.27-2.54-18.45C195.92,411.75,197.24,399.46,200.18,387.38z M172.3,443.01
				c1.9-0.2,2.77-0.76,2.39-3c-0.92-5.47-2-10.97-2.2-16.49c-0.38-10.53-0.64-21.08,1.79-31.51c1.09-4.67-0.16-5.84-5.05-5.96
				c-1.23-0.03-2.47,0.21-3.7,0.39c-2.3,0.34-3.87,1.58-4.19,3.94c-0.94,6.8-1.79,13.62-2.29,17.5c0.38,11.13,0.75,19.23,3.16,27.11
				C163.37,438.78,167.29,443.53,172.3,443.01z M151.25,432.65c1.91,0.54,2.7-0.09,2.42-2.07c-0.15-1.05-0.73-2.05-0.83-3.11
				c-1.18-11.75-1.61-23.51,0.27-35.24c0.26-1.6-0.42-2.15-2.05-2.41c-1.14,0.6-2.42,1.03-3.41,1.83c-2.67,2.18-3.89,5.12-4.68,8.49
				c-1.97,8.47-1.75,16.81,0.89,25.05C145.02,428.8,147.38,431.55,151.25,432.65z"/>
			<path style="fill:#1484C4;" d="M636.27,553.78c0.66,5.49,0.74,11.16,0.16,16.65c-0.84,7.81-5.48,15.88-14.17,18.79
				c-1.43,0.48-2.66,2.6-3.29,4.23c-2.54,6.53-7.19,10.42-13.93,11.87c-1.73,0.38-2.66,1.13-3.28,2.86
				c-2.19,6.1-5.79,11.17-11.47,14.56c-0.14,0.08-0.27,0.25-0.41,0.27c-5.86,0.72-7.81,5.07-9.7,9.84
				c-1.64,4.14-3.82,8.03-7.72,10.77c-3.47,2.44-7.24,2.2-10.78,1.33c-5.05-1.23-9.86-3.33-13.86-6.91c-2.71-2.42-3.45-2-4.49,1.53
				c-2.52,8.46-5.57,16.75-11.78,23.31c-4.07,4.3-9.23,6.42-15.11,4.69c-3.11-0.91-6.06-2.66-8.8-4.47
				c-5.42-3.58-10.07-8.04-13.75-13.48c-1.63-2.41-2.41-2.24-3.62,0.28c-3.18,6.56-6.85,12.7-13.5,16.42
				c-8.35,4.69-20.98,4.62-27.28-4.13c-2.58-3.59-4.88-7.39-7.32-11.09c-0.65-0.99-1.34-1.96-1.97-2.87
				c-3.2,5.84-5.76,11.73-9.38,16.87c-6.78,9.63-23.24,8.95-29.99-1.8c-4.2-6.69-6.94-13.92-9.34-21.35
				c-0.23-0.72-0.37-1.48-0.73-2.12c-0.3-0.52-0.84-1.19-1.31-1.22c-0.42-0.03-1.1,0.66-1.29,1.17c-1.13,3.02-2.15,6.07-3.2,9.12
				c-2.24,6.47-5.55,12.42-10.2,17.38c-7.2,7.68-21.17,6.62-27.11-2.1c-2.86-4.19-4.77-9.03-7.12-13.58
				c-0.56-1.08-1.15-2.16-2.12-3.96c-0.76,1.44-1.26,2.26-1.64,3.14c-2.59,5.99-5.58,11.8-10.91,15.79
				c-6.21,4.66-13.26,4.82-20.36,2.33c-7.72-2.72-12.32-8.76-15.7-15.82c-2.55-5.32-2.83-5.45-6.22-0.87
				c-4.82,6.53-10.94,11.54-18.13,15.22c-5.34,2.74-12.53,1.58-16.96-2.47c-4.91-4.51-7.84-10.22-10.13-16.32
				c-1.16-3.1-2.16-6.26-3.28-9.38c-0.78-2.17-1.6-2.27-3.36-0.87c-5.76,4.56-11.99,7.86-19.63,8.02c-3.6,0.08-6.1-1.68-8.22-3.98
				c-3.74-4.09-6.16-9.03-7.63-14.36c-0.64-2.33-2.69-2.46-4.21-2.93c-6.94-2.17-10.91-7.24-13.88-13.41
				c-0.58-1.2-0.94-2.53-1.66-3.62c-0.49-0.74-1.38-1.52-2.21-1.69c-5.85-1.2-10.49-4-13.26-9.46c-0.37-0.73-0.74-1.48-0.94-2.26
				c-0.64-2.51-1.9-4.01-4.57-4.98c-4.83-1.74-8.49-5.18-10.57-9.97c-3.73-8.62-3.76-17.44-1.94-26.57
				c1.28-6.39,3.74-11.96,8.77-15.99c7.02-5.61,14.87-8.39,24.13-6.25c4.85,1.11,8.62,3.57,12.23,6.73c1.37,1.19,3.24,2.2,5.01,2.48
				c6.23,1,10.81,4.19,14.38,9.29c0.98,1.39,2.66,2.62,4.27,3.18c4.99,1.71,9.15,4.47,13,8.08c1.85,1.73,4.73,2.55,7.29,3.31
				c4.48,1.35,8.4,3.54,11.6,6.91c1.8,1.89,3.35,2.03,5.9,1.1c5.61-2.04,11.4-1.92,17.04,0.38c5.95,2.43,11.03,6.1,15.32,10.84
				c1.44,1.6,2.83,1.73,4.87,1.08c2.9-0.92,5.94-1.56,8.97-1.86c10.55-1.07,21.1-0.91,31.62,0.42c2.02,0.26,4.14,0.85,5.91,1.84
				c2.06,1.15,3.44,1,5.63-0.04c2.91-1.38,6.35-1.84,9.62-2.21c10.28-1.16,20.6-0.92,30.85,0.39c2.7,0.35,5.24,1.87,7.91,2.66
				c1.16,0.34,2.82,0.7,3.67,0.16c3.89-2.5,8.25-2.95,12.62-3.29c9.88-0.78,19.78-0.93,29.62,0.43c2.63,0.37,5.11,1.7,7.7,2.45
				c1.05,0.3,2.53,0.69,3.27,0.21c3.36-2.17,7.11-2.65,10.91-3.02c10.8-1.06,21.6-0.83,32.36,0.41c1.86,0.21,3.67,1.03,5.47,1.65
				c1.44,0.49,2.4,0.15,3.5-0.99c5.55-5.73,11.78-10.42,19.74-12.38c4.94-1.21,9.68-0.9,14.28,1.28c1.42,0.67,2.65,0.68,3.79-0.64
				c4.08-4.72,9.45-7.12,15.37-8.65c1.68-0.43,3.42-1.4,4.65-2.62c3.75-3.69,8.02-6.37,13.01-8.05c1.39-0.46,2.78-1.5,3.69-2.65
				c2.93-3.68,6.03-7.08,10.65-8.66c0.39-0.13,0.77-0.51,1.13-0.48c4.89,0.36,7.71-3.17,11.18-5.66c7.84-5.64,16.27-6.26,25.2-2.53
				c4.98,2.09,9.09,5.06,12.28,9.4C634.25,544.76,635.73,549.25,636.27,553.78z M630.07,563.54c-0.17-0.05-0.35-0.1-0.53-0.16
				c-0.21-2.89-0.16-5.84-0.68-8.67c-0.76-4.06-1.68-8.28-4.73-11.28c-6.48-6.38-14.07-8.83-22.91-5.32
				c-0.66,0.26-1.11,1.05-1.65,1.59c0.53,0.45,0.99,1.03,1.6,1.31c4.9,2.32,9.12,5.59,12.17,10.01c4.46,6.47,6.73,13.77,7.08,21.65
				c0.09,1.98,0.37,3.96,0.59,5.93c0.23,1.95,1.43,2.6,2.82,1.32c1.37-1.26,2.93-2.74,3.46-4.42
				C628.52,571.61,629.18,567.54,630.07,563.54z M614.16,580.63c-1.26-6.65-1.78-12.99-3.73-18.87c-2.91-8.82-9.6-13.92-18.85-15.35
				c-3.33-0.51-6.65-0.16-9.52,1.88c-0.52,0.37-1.1,1.19-1.03,1.71c0.08,0.53,0.87,1.06,1.46,1.37c2.93,1.55,6,2.83,8.81,4.55
				c7.57,4.6,12.48,11.36,13.64,20.07c0.81,6.1,0.15,12.38,0.18,18.59c0,0.67,0.04,1.69,0.43,1.92c0.48,0.29,1.58,0.17,2.01-0.22
				c1.27-1.14,2.87-2.33,3.39-3.82C612.31,588.53,613.16,584.43,614.16,580.63z M597.24,582.48c0.31-6.19-1.33-11.78-5.97-16.24
				c-4.14-3.99-8.82-7-14.53-8.11c-3.8-0.74-7.23,0.57-10.48,2.35c-0.9,0.49-1.92,1.54-0.37,2.46c1.33,0.78,2.84,1.24,4.26,1.87
				c4.38,1.97,7.83,5.12,10.21,9.18c4.63,7.91,6.03,16.72,6.69,25.79c-0.37,3.94-0.79,7.87-1.06,11.82
				c-0.08,1.06,0.32,2.15,0.5,3.23c1.08-0.43,2.41-0.59,3.19-1.33c3.52-3.3,5.32-7.68,5.99-12.26
				C596.58,595.04,596.93,588.75,597.24,582.48z M579.49,601.26c-0.17-0.03-0.34-0.07-0.52-0.1c-0.18-2.56-0.32-5.13-0.57-7.69
				c-0.5-5.16-1.65-10.23-4.39-14.64c-4.62-7.43-11.97-10.04-20.29-9.76c-5.05,0.16-9.76,1.9-13.25,6.01
				c-1.03,1.21-1.25,2.25-0.36,3.55c2.94,4.3,4.74,9.02,5.84,14.14c2.11,9.81,1.86,19.63,0.76,29.49c-0.27,2.41,0.33,4.33,1.81,6.21
				c3.43,4.32,7.97,7.12,13.02,8.84c4.12,1.41,6.36,1.99,9.48-2.75c2.15-3.26,4.03-6.99,4.86-10.76
				C577.51,616.38,578.33,608.78,579.49,601.26z M539.89,609.53c0.44-6.2-0.16-12.45-1.94-18.59c-2.45-8.47-8.64-14.64-18.06-13.98
				c-5.74,0.4-10.31,3.72-14.65,7.34c-4.57,3.8-6.86,7.86-6.36,14.41c0.85,11.08-0.57,22.24-2.9,33.14
				c-0.96,4.46,0.48,8.01,2.54,11.52c4.14,7.06,10.37,12.02,17.27,16.17c3.66,2.21,6.8,1.68,9.92-1.29
				c5.83-5.55,8.32-12.94,10.4-20.29C538.72,628.78,540.49,619.36,539.89,609.53z M491.16,597.19c0.12-2.76-0.3-6.17-3.93-7.27
				c-1.33-0.39-2.75-0.51-4.15-0.64c-9.95-0.91-19.92-0.83-29.85,0.24c-4.65,0.51-6.36,2.85-6.47,7.48
				c-0.15,6.15-0.01,12.33-0.68,18.42c-0.82,7.53-1.57,14.86,0.45,22.41c1.49,5.57,3.04,10.99,6.22,15.8
				c2.89,4.36,6.03,8.51,12.31,7.85c3.28,0.36,6.23-0.7,9-2.61c5.57-3.84,8.17-9.77,10.4-15.68c2.07-5.47,3.75-11.24,4.49-17.02
				C490.19,616.57,490.75,606.87,491.16,597.19z M438.82,596.06c0.04-4.79-2.17-6.8-6.83-7.13c-3.06-0.22-6.13-0.39-9.18-0.72
				c-8.26-0.9-16.41,0.3-24.56,1.25c-2.91,0.33-4.43,2.44-4.55,5.4c-0.1,2.41-0.02,4.82-0.02,7.23c-0.15,0.02-0.3,0.04-0.44,0.05
				c0.91,8.49,1.45,17.04,2.87,25.44c1.08,6.33,2.97,12.58,5.11,18.65c1.65,4.71,3.81,9.36,6.52,13.53
				c3.62,5.57,10.71,6.52,15.62,2.09c2.67-2.41,4.71-5.76,6.34-9.04c4.19-8.47,6.36-17.68,7.5-26.95
				C438.42,616,438.74,606,438.82,596.06z M384.84,596.78c0.18-4.56-1.92-6.8-6.46-7.22c-5.21-0.49-10.45-0.61-15.43-0.88
				c-5.57,0.27-10.89,0.48-16.2,0.79c-3.75,0.21-5.99,2.22-5.88,6c0.29,9.26,0.98,18.51,1.37,27.77c0.3,7.04,1.95,13.83,4.17,20.4
				c1.84,5.42,4.35,10.71,7.3,15.62c3.87,6.43,13.52,5.38,16.92,0.45c4.94-7.18,7.79-15.33,9.68-23.76
				c1.31-5.88,2.23-11.88,2.91-17.88C384.01,611,384.55,603.89,384.84,596.78z M332.33,637.8c0.81-4.2,1.56-8.52,1.4-12.76
				c-0.31-8.44-1.27-16.86-1.96-25.3c0.07,0,0.13-0.01,0.2-0.01c0-1.17,0.03-2.33-0.01-3.49c-0.15-4.27-1.66-6.16-5.88-6.66
				c-11.09-1.32-22.21-1.16-33.31-0.04c-2.61,0.27-4.46,2.03-4.73,4.63c-0.25,2.53-0.1,5.1-0.13,7.65
				c-0.16,10.82,0.83,21.49,3.35,32.06c1.4,5.89,3.55,11.4,6.4,16.65c2.41,4.42,5.41,8.41,10.48,10.07
				c3.85,1.26,7.71,1.66,11.55-0.28c5.25-2.66,7.32-7.75,9.55-12.59C330.68,644.6,331.69,641.19,332.33,637.8z M279.91,644.04
				c2.54-3.82,5.38-8.04,2.52-13.11c-0.15-0.27-0.11-0.65-0.15-0.98c-0.64-5.84-1.46-11.68-1.88-17.54
				c-0.35-5.04-0.21-10.1-0.35-15.15c-0.06-2.2,0.55-4.97-0.54-6.49c-3.74-5.22-8.47-9.53-14.48-12.23
				c-10.35-4.65-19.77,0.8-23.09,9.47c-2.57,6.7-3.55,13.79-3.25,18.86c0.1,15.32,2.33,28.08,7.38,40.25
				c1.77,4.26,3.77,8.49,7.46,11.62c2.6,2.21,5.25,2.8,8.17,1.43C269.35,656.57,275.32,650.95,279.91,644.04z M237.69,578.94
				c0.8-1.52,0.88-3.08-0.57-4.02c-2.45-1.57-4.95-3.42-7.69-4.13c-12.89-3.33-23.68,2.8-27.18,15.15
				c-1.4,4.97-1.74,10.25-2.38,14.23c0.45,4.8,0.61,8.37,1.17,11.88c0.63,3.98,1.31,8,2.55,11.8c1.37,4.18,3.17,8.26,5.31,12.1
				c0.67,1.21,3.16,2.3,4.58,2.05c6.46-1.11,11.98-4.19,16.38-9.15c1.94-2.17,2.88-4.63,2.32-7.55c-1.4-7.33-1.32-14.71-0.34-22.05
				c0.79-5.87,1.37-11.84,4.45-17.14C236.87,581.11,237.16,579.96,237.69,578.94z M212.97,563.13c0.5-0.14,1.32-0.6,1.29-0.85
				c-0.05-0.56-0.42-1.38-0.87-1.55c-2.53-0.97-5.08-2.32-7.71-2.56c-7.34-0.66-13.1,3.09-18.1,7.89c-4.53,4.35-6.52,9.87-6.09,16.2
				c0.06,0.91,0,1.83,0,2.74c-0.1,0.02-0.21,0.03-0.32,0.04c0.45,4.7,0.59,9.46,1.44,14.09c1,5.46,2.71,10.79,7.09,14.67
				c0.64,0.57,1.67,0.68,2.53,1c0.21-0.91,0.64-1.84,0.59-2.74c-0.13-2.8-0.57-5.6-0.67-8.41c-0.28-7.92,0.91-15.69,3.03-23.28
				c0.79-2.82,1.81-5.94,3.72-8C202.76,568.21,207.31,564.73,212.97,563.13z M198.22,549.7c-0.88-0.81-1.73-1.66-2.66-2.42
				c-0.29-0.24-0.8-0.19-1.18-0.35c-2.98-1.27-5.9-0.73-8.98-0.18c-6.57,1.16-11.5,4.5-14.81,10.17c-4,6.85-5.26,14.41-5.39,23.62
				c0.12,1.42,0.11,4.28,0.68,7.02c0.78,3.78,2.18,7.36,6,9.25c1.58,0.78,2.36,0.24,2.3-1.46c-0.16-4.97-0.32-9.94-0.42-14.92
				c-0.09-4.93,1.31-9.52,3.64-13.79c4.01-7.35,10.55-11.69,18.07-14.84C196.5,551.37,197.31,550.41,198.22,549.7z M177.52,541.23
				c0.69-0.35,1.15-1.15,1.71-1.73c-0.68-0.65-1.26-1.63-2.07-1.9c-5.13-1.72-10.23-1.64-15.26,0.57c-4.18,1.84-7.46,4.63-9.5,8.73
				c-2.56,5.16-3.38,10.68-3.03,16.99c0,1.23-0.19,3.08,0.04,4.88c0.54,4.18,1.79,8.11,5.23,10.92c0.59,0.48,1.56,0.96,2.17,0.78
				c0.47-0.14,0.85-1.28,0.9-2.01c0.54-6.53,1.43-12.98,3.65-19.2C164.3,551.04,169.8,545.16,177.52,541.23z"/>
		</g>
	</g>
</g>
</svg>
