<?xml version="1.0" encoding="iso-8859-1"?>
<!-- Generator: Adobe Illustrator 23.1.1, SVG Export Plug-In . SVG Version: 6.00 Build 0)  -->
<svg version="1.1" id="Layer_1" xmlns="http://www.w3.org/2000/svg" xmlns:xlink="http://www.w3.org/1999/xlink" x="0px" y="0px"
	 viewBox="0 0 768 1024" style="enable-background:new 0 0 768 1024;" xml:space="preserve">
<g>
	<g id="XMLID_5_">
		<g>
			<path style="fill:#298CC3;" d="M635.25,453.79c3.35,9.07,2.89,18.46,1.42,27.75c-0.65,4.1-2.12,8.16-5.08,11.43
				c-1.09,1.2-1.64,2.45-1.54,4.41c0.44,8.6,0.21,17.29-5.75,24.29c-2.12,2.5-5.18,4.43-8.17,5.87c-1.69,0.81-2.77,1.68-3.33,3.24
				c-2.59,7.26-7.49,11.66-15.22,12.91c-0.96,0.16-2.06,1.37-2.53,2.36c-2.05,4.34-3.73,8.96-7.82,11.87
				c-2.51,1.79-5.3,3.22-8.08,4.6c-1.98,0.99-3.6,1.83-4.16,4.4c-1.34,6.2-4.38,11.69-9.26,15.72c-1.75,1.45-4.84,1.98-7.25,1.83
				c-6.65-0.42-12.59-3.01-17.74-7.33c-0.82-0.68-2.02-0.91-3.04-1.34c-0.3,0.98-0.54,1.99-0.9,2.95c-1.5,4.06-2.81,8.21-4.63,12.13
				c-2.3,4.94-4.86,9.87-9.71,12.88c-7.22,4.49-13.62,4.64-20.61-0.7c-3.78-2.89-7.48-5.9-11.02-9.08
				c-2.01-1.81-3.63-4.06-5.75-6.48c-2.13,3.3-4.12,6.31-6.03,9.37c-3.05,4.9-7.37,8.53-12.75,10.1
				c-8.06,2.35-16.17,2.63-22.61-4.25c-2.16-2.31-4.21-4.79-5.88-7.46c-1.63-2.59-2.7-5.52-4.24-8.77
				c-1.62,3.26-3.15,6.21-4.59,9.21c-3.59,7.49-8.3,13.42-17.46,14.34c-7.52,0.76-15.96-3.83-19.12-11.02
				c-2.24-5.07-4.57-10.11-6.61-15.25c-1.26-3.17-2.04-6.52-3.14-10.1c-0.9,2.84-1.5,5.38-2.49,7.77
				c-2.78,6.68-5.41,13.45-8.69,19.89c-3.14,6.15-9.05,8.8-15.64,8.98c-7.09,0.19-12.88-2.89-16.48-9.26
				c-2.72-4.8-5.29-9.68-7.71-14.13c-2.12,3.62-4.22,7.43-6.55,11.11c-6.87,10.82-19.83,13.03-30.41,6.76
				c-5.6-3.32-8.96-8.44-12-13.9c-0.78-1.42-1.61-2.81-2.34-4.09c-3.9,4.04-7.24,8.27-11.34,11.56c-3.74,3-8.04,5.74-12.54,7.26
				c-7.14,2.43-13.05-0.86-17.54-6.4c-4.49-5.55-6.97-12.19-9.3-18.86c-0.67-1.94-1.39-3.86-2.18-6.04
				c-2.96,1.98-5.5,4.23-8.46,5.54c-3.89,1.71-8.04,2.94-12.19,3.89c-3.73,0.85-6.69-1.13-9.25-3.76
				c-3.82-3.92-5.73-8.85-7.62-13.84c-0.43-1.15-1.53-2.47-2.64-2.87c-4.13-1.5-8.15-3.18-10.79-6.82
				c-2.17-2.99-4.02-6.24-5.76-9.51c-1.07-2.01-2.08-3.17-4.68-3.66c-6.04-1.13-10.07-5.2-12.29-10.88
				c-1.01-2.6-2.32-4.44-5.13-5.54c-6.21-2.41-9.88-7.25-11.65-13.62c-1.53-5.49-2.14-11.02-1.4-16.72c0.14-1.06-0.47-2.5-1.21-3.33
				c-4.35-4.88-5.55-10.95-6.07-17.02c-0.55-6.49-0.92-13.17,1.34-19.5c2.04-5.67,4.8-10.75,10.74-13.59
				c2.62-1.25,5.11-1.63,7.85-1.76c1.27-0.06,2.71-0.41,3.73-1.11c5.14-3.55,10.68-3.37,16.25-1.67c2.41,0.73,4.18,0.65,6.13-1.03
				c6.18-5.33,13.17-4.62,20.18-2.17c2.94,1.03,5.27,1.25,8-0.88c6.12-4.78,13.02-5.15,20.26-2.6c6.58,2.31,11.76,6.32,15.8,11.93
				c1.24,1.72,2.14,1.06,2.86-0.51c2.36-5.14,5.77-9.45,10.27-12.92c6.85-5.27,18.58-4.62,26.51,0.73
				c6.17,4.16,10.99,9.51,15.05,15.61c1.72,2.57,2.98,5.45,4.44,8.19c0.28,0,0.56,0.01,0.83,0.01c1.48-2.99,2.88-6.03,4.44-8.99
				c4.48-8.47,10.22-15.97,18.08-21.53c4.27-3.02,9.2-4.77,14.64-5.05c6.43-0.33,12.58,0.61,17.88,4.19
				c3.74,2.51,7.12,5.7,10.18,9.03c6.58,7.14,10.48,15.89,13.63,24.91c1.9,5.45,3.01,11.17,4.49,16.77c0.08,0.3,0.26,0.58,0.57,1.25
				c0.38-0.84,0.71-1.36,0.87-1.92c1.23-4.47,2.3-8.99,3.68-13.41c1.04-3.31,2.44-6.51,3.75-9.74c3.61-8.88,8.64-16.86,15.88-23.19
				c5.33-4.66,11.49-7.54,18.89-7.93c11.66-0.61,20.37,4.54,27.38,13.09c3.61,4.4,6.69,9.24,9.8,14.02
				c1.25,1.91,1.91,4.21,2.87,6.32c0.33,0.71,0.79,1.36,1.55,2.66c1.5-2.61,2.7-4.71,3.93-6.79c5.68-9.56,12.85-17.53,23.74-21.2
				c4.68-1.58,9.4-0.83,14.11,0.63c7.28,2.24,11.16,7.86,14.72,13.92c1.33,2.28,2.37,2.38,4.03,0.2c3.62-4.75,8.3-8.03,13.79-10.26
				c7.86-3.2,15.34-2.64,22.06,2.67c2.29,1.8,4.23,1.62,6.67,0.75c5.29-1.88,10.7-3.3,16.25-1.13c1.81,0.71,3.73,1.67,5.01,3.06
				c1.49,1.6,2.83,1.35,4.66,1.15c4.17-0.47,8.38-0.55,12.57-0.75c0.48-0.02,1.09,0.1,1.42,0.4c3.46,3.03,7.9,2.61,11.98,3.46
				C628.95,442.94,632.95,447.54,635.25,453.79z M630.46,469.97c-0.21-0.04-0.43-0.08-0.64-0.12c0-1.08,0.05-2.16-0.01-3.24
				c-0.28-4.81-0.73-9.65-3.68-13.68c-1.08-1.46-2.73-2.69-4.38-3.51c-2.1-1.06-3.15-0.17-2.9,2.13c0.31,2.96,1.04,5.9,1.06,8.85
				c0.03,6.7-0.17,13.41-0.45,20.11c-0.11,2.71-0.64,5.4-1,8.11c-0.3,2.24,0.69,3.4,2.46,2.67c3.26-1.35,5.96-3.49,6.79-7.05
				C628.82,479.53,629.56,474.73,630.46,469.97z M622.69,502.67c0.02-3.44-0.12-3.56-3.7-3.15c-0.5,0.05-1,0.03-1.5,0.05
				c-2.52,0.12-5.13,3.09-4.86,5.56c0.46,4.1,0.98,8.2,1.41,12.3c0.19,1.8,1.06,2.18,2.49,1.29c0.74-0.46,1.38-1.14,1.95-1.83
				C621.88,512.75,622.47,507.76,622.69,502.67z M611.01,489.31c1.28-6.38,1.58-12.95,2.29-19.49c-0.71-6.4-1.32-12.74-2.15-19.05
				c-0.57-4.3-2.29-5.62-6.68-5.69c-1-0.01-2,0-3,0.03c-4.51,0.16-5.28,1.05-4.23,5.51c2.99,12.7,2.16,25.54,1.41,38.36
				c-0.21,3.45-1.12,6.86-1.5,10.31c-0.09,0.77,0.6,2.28,1.08,2.34c2.53,0.33,5,0.42,7.36-1.25
				C609.48,497.62,610.22,493.27,611.01,489.31z M604.98,528.2c0.95-4.22,1.49-8.69,1.22-13c-0.38-6.16-0.75-6.1-6.83-5.44
				c-1.66,0.18-2.07,0.92-1.84,2.48c0.63,4.07,1.14,8.16,1.52,10.98c-0.31,4.14-0.56,6.95-0.71,9.76c-0.03,0.58,0.25,1.61,0.57,1.68
				c0.6,0.15,1.61-0.02,1.95-0.46C602.39,532.29,604.48,530.41,604.98,528.2z M591.75,473.97c-0.1,0-0.2-0.01-0.3-0.01
				c0-3.24,0.18-6.49-0.04-9.71c-0.44-6.43-0.95-12.87-3.9-18.81c-1.55-3.13-4.04-4.6-7.4-4.39c-2.05,0.13-4.13,0.57-6.09,1.19
				c-2.03,0.64-2.94,1.95-2.44,4.4c1.25,6.07,2.72,12.18,3.12,18.34c0.8,12.43,0.46,24.86-2.25,37.12
				c-0.33,1.53-0.62,3.41,1.19,4.19c2.26,0.96,4.66,1.66,7.06,2.21c3.21,0.73,5.45-0.81,6.36-3.78c1.5-4.89,3.11-9.82,3.86-14.85
				C591.7,484.64,591.51,479.27,591.75,473.97z M590.77,523.67c-0.2-1.97-0.35-4.45-0.74-6.89c-0.09-0.54-1.3-1.46-1.57-1.33
				c-3.41,1.64-6.93,1.32-10.51,0.92c-1.66-0.19-2.19,0.72-1.66,2.35c2.68,8.27,3.97,16.71,3.13,25.42
				c-0.21,2.22-0.42,4.45-0.46,6.68c-0.01,0.82,0.47,1.64,0.73,2.46c0.82-0.28,1.88-0.33,2.42-0.89c1.35-1.42,2.66-2.96,3.66-4.65
				C590.07,540.46,590.14,532.27,590.77,523.67z M569.61,558.97c2.99-12.52,3.63-25.07-0.58-37.49c-0.33-0.97-1.29-1.74-2.11-2.8
				c-7.34,13.35-13.7,14.61-28.18,11.03c0.46,2.87,1.22,5.5,1.25,8.15c0.09,7.38-0.03,14.76-0.26,22.14
				c-0.08,2.75,0.06,5.14,2.1,7.34c3.17,3.41,6.77,5.99,11.1,7.73c7.05,2.84,9.57,1.77,12.84-4.89
				C567.49,566.65,568.7,562.8,569.61,558.97z M565.36,497.47c1.23-6.99,1.46-14.16,2.15-21.46c-0.67-6.95-1.04-14.09-2.14-21.11
				c-0.64-4.06-1.4-8.24-4.39-11.67c-4.58-5.27-9.09-6.38-14.64-4.81c-6.26,1.77-10.97,5.98-14.54,11.44
				c-2.12,3.24-3.04,6.56-2.26,10.54c1.24,6.32,2.62,12.71,2.86,19.12c0.43,11.24,0.03,22.52,0.05,33.78c0,1.07,0.15,2.56,0.84,3.16
				c4.36,3.82,9.23,6.8,15.14,7.51c4.02,0.47,7.12-1.19,9.19-4.68C561.63,512.53,564.02,505.1,565.36,497.47z M532.92,546.6
				c-0.13-2.62-0.08-5.97-0.51-9.25c-0.42-3.25-1.04-6.55-2.09-9.65c-1.46-4.31-1.8-4.22-5.07-0.79
				c-6.53,6.84-14.63,10.15-24.01,10.49c-1.83,0.06-3.66-0.04-5.49-0.07c-3.07-0.04-2.99,0.11-3.29,3.21
				c-0.87,8.89-1.9,17.77-2.92,26.64c-0.43,3.76-1.52,7.5,0.37,11.2c3.46,6.78,8.14,12.44,14.59,16.61
				c7.18,4.64,9.79,6.42,16.33-0.54c0.7-0.75,0.99-1.86,1.54-2.76c3.41-5.63,5.7-11.66,7.3-18.06
				C531.84,564.95,532.66,556.17,532.92,546.6z M524.63,509.88c0.68-4.14,0.5-8.43,0.79-14.68c-0.47-5.36-1.2-12.69-1.76-20.04
				c-0.61-8-2.19-15.79-4.87-23.35c-0.88-2.45-2.05-4.8-3.18-7.15c-2.11-4.39-6.84-10.53-13.67-10.35c-3.7,0.1-6.5,1.46-9.59,3.21
				c-6.07,3.44-10.44,8.43-14.14,14.06c-2.1,3.2-3.67,6.8-5.15,10.36c-1.22,2.91-2.75,5.75-1.58,9.29c1.3,3.91,2.28,7.99,2.87,12.07
				c1.19,8.27,2.14,16.58,2.97,24.9c0.46,4.6,0.49,9.24,0.68,13.86c0.14,3.51,0.79,4.35,4.26,4.97c4.47,0.79,8.93,1.84,13.44,2.2
				c7.61,0.62,15.04,0.37,21.27-5.3C521.24,520.05,523.73,515.34,524.63,509.88z M485.16,543.04c-0.21-0.03-0.43-0.06-0.64-0.09
				c0-0.99,0-1.99,0-2.99c0-3.99,0-4.01-3.81-5.19c-1.02-0.33-2.14-0.39-3.12-0.8c-1.43-0.59-2.26-0.17-3.13,1.03
				c-2.93,4.07-6.2,7.79-10.93,9.91c-6.79,3.04-13.96,4.7-21.24,6.02c-1.13,0.21-2.98,1.07-3.05,1.78
				c-0.6,5.74-1.19,11.52-1.1,17.27c0.06,3.32,1.21,6.66,2.16,9.91c1.73,5.92,3.86,11.77,8.26,16.24c1.81,1.84,4.52,3.44,7.03,3.83
				c7.1,1.1,12.85-1.64,16.86-7.7c4.77-7.22,7.84-15.11,9.12-23.67C482.84,560.09,483.97,551.56,485.16,543.04z M459.03,538.45
				c6.85-2.75,11.36-8.85,10.96-16.17c-0.55-9.84-1.11-19.73-2.57-29.46c-1.51-10.05-3.51-20.1-6.37-29.83
				c-3.05-10.37-7.86-20.11-15.74-27.9c-3.5-3.46-7.42-6.6-12.32-7.65c-9.61-2.07-17.64,0.97-24.13,8.28
				c-3.81,4.29-7.05,8.86-9.53,14.1c-3.74,7.92-6.53,16.11-8.22,24.66c-1.04,5.27-1.4,10.66-2.24,15.98
				c-1.8,11.34-2.19,22.75-1.89,34.2c0.15,6.11,4.5,12.43,10.72,14.64c9.49,3.37,19.34,5.38,25.91,5.18
				C438.2,544.39,448.82,542.54,459.03,538.45z M430.99,554.78c0.22-1.62-0.47-2.31-2.21-2.51c-8.71-1.04-17.46-1.9-26.06-3.51
				c-4.22-0.79-8.15-3.08-12.21-4.68c-0.88-0.34-1.77-0.65-2.65-0.97c-0.23,0.92-0.74,1.87-0.64,2.75
				c0.54,5.02,1.3,10.01,1.85,15.03c1.36,12.46,4.38,24.39,10.76,35.34c2.3,3.95,5.44,6.1,10.22,6.42c1.98-0.72,4.1-1.19,5.91-2.22
				c4.12-2.31,5.75-6.74,7.29-10.68c2.42-6.19,4.04-12.75,5.5-19.26C429.89,565.34,430.29,560.03,430.99,554.78z M378.85,525.06
				c0.42-6.6-0.09-13.29-0.57-19.9c-0.52-7.11-1.37-14.19-2.31-21.25c-0.62-4.67-1.4-9.36-2.59-13.91c-1.28-4.88-3.1-9.61-4.72-14.4
				c-2.9-8.54-7.61-15.91-14.06-22.27c-7.81-7.7-20.63-9.27-29.91-2.45c-9.79,7.19-15.64,17.31-19.42,28.53
				c-2.62,7.74-4.59,15.75-6.19,23.78c-1.43,7.12-2.13,14.41-2.85,21.66c-0.48,4.78-0.17,9.65-0.66,14.43
				c-1.02,9.86,2.85,16.74,12.14,20.03c9.92,3.51,20.23,5.16,30.8,5.49c9.47-0.3,18.66-2.14,27.79-4.88
				C373.13,537.86,378.44,531.53,378.85,525.06z M377.07,553.61c0.22-3.09,0.04-6.2,0.04-9.64c-0.85,0.22-1.21,0.23-1.47,0.39
				c-6.31,4.1-13.72,4.82-20.77,6.33c-5.71,1.22-11.69,1.2-17.56,1.61c-3.11,0.21-3.22,0.14-3.09,3.34c0.09,2.23,0.25,4.48,0.6,6.68
				c1.88,11.89,4.33,23.56,10.56,34.17c4.35,7.41,14.65,8.04,19.49,0.93c6.47-9.52,8.81-20.44,10.77-31.48
				C376.37,561.88,376.77,557.74,377.07,553.61z M327.5,564.04c0.11-3.28-0.65-6.58-0.88-9.88c-0.14-1.9-1.1-2.8-2.86-3.19
				c-5.17-1.16-10.35-2.28-15.47-3.61c-6.53-1.7-12.29-4.93-16.1-10.54c-1.84-2.72-3.6-3.25-6.36-2.38
				c-0.87,0.28-1.76,0.51-2.65,0.7c-1.73,0.37-2.53,1.37-2.45,3.18c0.18,4.06,0.25,8.13,0.42,12.19
				c0.56,13.81,3.44,27.06,10.11,39.28c3.36,6.15,8.16,10.43,16.39,10.42c5.16,0.38,8.72-3.07,11.7-7.39
				c3.49-5.06,5.23-10.88,6.62-16.75C326.9,572.15,327.36,568.07,327.5,564.04z M293.42,474.27c0.61-2.68,1.17-5.69,0.56-8.27
				c-0.88-3.73-2.63-7.3-4.38-10.77c-4.38-8.7-10.13-16.17-19.52-20.04c-4.66-1.92-12.14-1.72-16.19,2.73
				c-3.44,3.78-6.08,8.12-7.5,12.99c-1.75,6.02-3.49,12.11-4.38,18.29c-1.38,9.5-2.04,19.1-3,28.66c0.11,0.02,0.22,0.04,0.32,0.05
				c0.2,2.98,0.44,5.96,0.57,8.94c0.64,14.43,11.15,23.59,25.74,23.13c6.49-0.2,12.94-1.77,19.4-2.82c1.9-0.3,3-1.36,3-3.57
				c0.02-4.98,0.24-9.96,0.42-14.93C288.88,497.02,290.83,485.61,293.42,474.27z M276.57,575.57c0.37-1.01,0.33-2.27,0.15-3.36
				c-0.82-5.07-1.97-10.09-2.6-15.17c-0.55-4.52-0.49-9.1-0.84-13.65c-0.15-2.07,0.07-5-1.13-5.95c-1.35-1.06-4.13-0.46-6.27-0.35
				c-6.66,0.34-12.96-0.81-18.53-4.57c-2.99-2.02-5.69-4.48-8.5-6.77c-0.96-0.79-1.93-1.69-2.76-0.04c-0.77,1.55-1.6,3.18-1.84,4.86
				c-0.81,5.73-1.38,11.5-1.86,15.73c0.63,12.16,1.65,22.66,5.04,32.79c1.85,5.52,4.07,10.87,7.71,15.48
				c3.93,4.96,8.07,5.39,13.1,1.55c0.79-0.6,1.57-1.24,2.43-1.72C268.38,590.14,273.54,583.74,276.57,575.57z M236.9,457.76
				c0.24-0.96,0.02-2.2-0.39-3.13c-0.83-1.88-1.8-3.75-2.97-5.43c-4.54-6.53-10.21-11.32-16.22-11.56
				c-9.38,0.13-15.25,5.04-16.44,11.84c-0.9,5.22-1.85,10.43-2.48,15.69c-0.5,4.1-1.03,8.3-0.69,12.39
				c0.64,7.81,1.83,15.58,2.91,23.36c0.89,6.47,3.18,12.48,6.42,18.16c2.27,3.98,7.02,6.42,10.84,5.42
				c5.28-1.39,10.12-3.68,14.12-7.42c0.83-0.78,1.54-2.2,1.51-3.29c-0.1-3.22-0.82-6.42-0.9-9.64
				C232.26,488.53,233.07,473.01,236.9,457.76z M224.19,566.6c1.4-1.61,1.87-3.65,1.74-6.02c-0.38-7.09-0.47-14.21-0.46-21.32
				c0.01-3.1,0.56-6.19,0.93-9.92c-5.96,2.04-11.44,3.27-16.8,1.27c-5.64-2.1-8.63-6.99-11.04-12.72c-0.85,1.23-1.73,2-2,2.96
				c-1.12,3.88-2.71,7.77-2.93,11.73c-0.47,8.18-0.77,16.41,1.33,24.52c1.5,5.81,3.08,11.54,6.52,16.58
				c1.65,2.42,3.76,3.25,6.65,2.68C214.69,575.06,219.9,571.52,224.19,566.6z M194.07,446.25c0.47-2.05,0.04-3.06-1.53-3.74
				c-3.18-1.38-6.53-1.95-9.98-1.22c-5.33,1.11-6.29,5.85-7.01,9.87c-1.31,7.39-1.69,14.94-2.46,22.42
				c0.21,0.02,0.41,0.04,0.62,0.07c0,0.66,0.02,1.32,0,1.99c-0.24,9,0.31,17.94,3.27,26.51c2.3,6.67,4.35,8.25,11.85,5.66
				c0.31-0.11,0.59-0.31,0.89-0.44c3.78-1.68,3.92-2.27,3.31-6.45c-0.93-6.46-1.96-12.95-2.25-19.46
				c-0.28-6.26,0.05-12.58,0.61-18.82C191.89,457.13,192.83,451.63,194.07,446.25z M189.42,518.76c0.28-0.72,0.2-1.58,0.33-2.84
				c-1.8,0.14-3.12,0.42-4.41,0.3c-2.65-0.26-5.34-0.55-7.91-1.2c-1.38-0.35-2.08-0.22-2.44,1.07c-0.26,0.96-0.5,1.95-0.51,2.93
				c-0.08,7.69,0.05,15.31,2.2,22.86c1.29,4.51,3.45,8.18,6.85,11.22c0.59,0.53,1.55,0.65,2.33,0.96c0.25-0.82,0.75-1.65,0.69-2.44
				C185.69,540.5,185.34,529.45,189.42,518.76z M167.65,513.56c0.53-3.83,0.32-3.87-3.47-4.15c-0.75-0.05-1.49-0.17-2.22-0.32
				c-1.92-0.39-2.91,0.48-2.98,2.32c-0.09,2.24-0.02,4.49-0.02,6.73c-0.03,0-0.07,0-0.1,0c0,2.08-0.19,4.18,0.04,6.23
				c0.5,4.38,2.4,8.07,6.08,10.66c0.52,0.37,1.43,0.54,2.02,0.35c0.33-0.1,0.58-1.15,0.51-1.74
				C166.71,526.94,166.72,520.26,167.65,513.56z M167.35,451.8c0.25-1.12,0.33-2.33,0.2-3.46c-0.09-0.71-0.55-1.67-1.13-1.98
				c-2.61-1.38-5.4-1.44-8.15-0.43c-3.29,1.21-3.34,4.48-3.68,7.03c-0.79,5.82-0.94,11.72-1.5,19.66c0.64,4.73,1.65,11.41,2.4,18.12
				c0.44,3.91,2.19,7.08,5.31,9.13c1.51,0.99,3.89,0.91,5.83,0.77c0.38-0.02,1.16-2.74,0.76-3.87c-1.57-4.52-1.28-9.17-1.47-13.79
				C165.47,472.55,164.99,462.11,167.35,451.8z M152.17,506.39c0.47-2.44-0.11-4.66-1.99-5.67c-1.81-0.98-4.24-0.87-6.42-1.07
				c-0.25-0.02-0.77,0.97-0.88,1.54c-0.16,0.8-0.04,1.65-0.04,2.48c0.28,5.19,1.02,10.24,5.1,14.04c0.56,0.51,1.39,0.73,2.09,1.08
				c0.29-0.69,0.72-1.37,0.82-2.09C151.32,513.26,151.52,509.79,152.17,506.39z M146.12,491.11c0.49-0.52,0.59-1.61,0.52-2.43
				c-0.53-6.02-1.54-12.02-1.61-18.03c-0.07-5.94,0.82-11.88,1.21-17.83c0.06-1,0.03-2.32-0.55-2.96c-0.43-0.47-2.07-0.46-2.72-0.01
				c-1.47,1.01-2.96,2.23-3.89,3.71c-2.97,4.69-3.51,10.05-3.94,17.25c0.53,3,1.05,7.79,2.31,12.39c0.91,3.33,2.81,6.4,6.39,7.76
				C144.56,491.23,145.78,491.47,146.12,491.11z"/>
		</g>
	</g>
</g>
</svg>
