<?xml version="1.0" encoding="utf-8"?>
<!-- Generator: Adobe Illustrator 23.1.1, SVG Export Plug-In . SVG Version: 6.00 Build 0)  -->
<svg version="1.1" id="Layer_1" xmlns="http://www.w3.org/2000/svg" xmlns:xlink="http://www.w3.org/1999/xlink" x="0px" y="0px"
	 viewBox="0 0 1536 2040" style="enable-background:new 0 0 1536 2040;" xml:space="preserve">
<style type="text/css">
	.st0{fill:none;}
</style>
<g id="xi590y.tif">
	<g>
		<path d="M735.4,1308.9c-46.4-0.4-97.3-5.6-146.3-22.7c-22.2-7.8-43.7-17.2-62.1-32.4c-12.3-10.2-22.2-22.5-30.7-36
			c-20.4-32.2-32.8-67.2-37.1-105c-1-8.9-1.4-17.9-1.8-26.9c-0.2-5.7,0.1-5.7,5.6-4.2c29.8,8.1,59.4,17.9,89.7,23.8
			c32.3,6.3,65.1,10,97.9,12.8c28.3,2.5,56.9,3.2,85.3,3c69.6-0.4,138.5-8.1,206.5-23.3c32.9-7.4,65.5-16.4,98.2-24.9
			c8.5-2.2,8.2-2.3,10.7,6.1c3.7,12.3,1.4,24.5-0.5,36.6c-5,31.7-17.7,60.6-32.4,88.8c-6.6,12.7-13.5,25.3-21.5,37.1
			c-9.2,13.6-22.8,22.1-37.7,28.6c-36.1,15.9-73.8,25.6-112.8,30.8C811.3,1305.9,776,1308.5,735.4,1308.9z M677.6,1183.7
			c0,14.1-0.1,24.4,0,34.7c0.1,8.1,6,15.2,13.7,16.1c9.6,1,19.2,1.8,28.8,1.8c7.9,0,16-0.4,23.1-5c3.4-2.2,4.7-4.9,4.4-9.1
			c-0.7-9.6-0.7-19.3-0.9-28.9c-0.2-12.1-0.2-24.3-0.3-36.4c0-3.2-1.2-4.7-4.7-4.9c-19.6-1.4-39.1-3-58.6-4.7c-3-0.2-3.7,1-3.8,3.7
			C678.8,1163.2,678.1,1175.3,677.6,1183.7z M828.3,1206.3c0.2,0,0.4,0,0.6,0c-1.3-17.9-2.6-35.9-3.8-53.8c-0.3-4.1-1.6-5.8-6.1-5.4
			c-19.2,1.9-38.4,3.6-57.6,5.2c-2.6,0.2-4,1.2-3.7,4c0.2,2.3,0.2,4.7,0.4,7c1.5,18.4,3.2,36.8,4.3,55.3c0.3,5.9,2.7,9.4,7.7,11.5
			c2.6,1.1,5.4,2.5,8,2.5c13.9-0.1,27.9-0.1,41.8-1.3c7.7-0.6,9.4-4.1,9.1-12C828.8,1215,828.5,1210.7,828.3,1206.3z M663.1,1180.2
			C663.1,1180.2,663.1,1180.2,663.1,1180.2c0-9,0.2-18-0.1-27c0-1.6-1.9-4.2-3.3-4.5c-17.1-3.7-34.2-7-51.3-10.5
			c-3.3-0.7-4.9,0.4-5.2,3.9c-0.6,6-2,11.9-1.9,17.8c0.1,14.6,0.4,29.2,1.4,43.8c0.5,7.5,5.9,12,13.1,14.1
			c13.9,3.9,27.2,1.8,40.6-2.7c5-1.7,6.8-4.7,6.8-9.5C663.1,1197.1,663.1,1188.7,663.1,1180.2z M842.5,1162c-0.2,0-0.4,0-0.7,0
			c1.3,16.3,2.2,32.5,4,48.7c0.3,2.9,3.6,6.9,6.5,7.9c10.8,4.1,21.9,4,32.4-1.3c4.5-2.2,7.1-5.7,6.4-11.3c-0.7-5.4-0.6-11-1.2-16.4
			c-1.8-15.3-3.8-30.7-6-46c-0.2-1.3-2.4-3.5-3.5-3.4c-11.4,0.9-22.8,2.2-34.2,3.4c-2.9,0.3-3.9,1.9-3.8,4.7
			C842.6,1153,842.5,1157.5,842.5,1162z M542,1153.7c0.6,7.7,0.5,15.2,1.9,22.6c1.6,8.6,3.7,17.3,7.2,25.3c3.5,8.2,10.2,10.8,17,7.5
			c9.9-4.8,18.6-11.1,20.6-23.3c0.8-4.8,2.6-9.4,3-14.1c0.8-8.9,1.5-17.8,1.3-26.7c-0.1-4.8-2.5-9.4-8.2-10.6
			c-11.9-2.5-23.8-4.7-35.6-7.4c-3.9-0.9-5.1,0.7-5.4,4.1C543.2,1138.6,542.6,1146.2,542,1153.7z M956.1,1186.4
			c-1.6-14.1-3.1-30.2-5.3-46.1c-1.6-11.8-1.9-11.6-13.4-9.1c-9.7,2.1-19.5,3.9-29.3,5.9c-3.1,0.6-5.2,2-4.6,5.8
			c1.8,11.2,3.1,22.4,5.2,33.5c2,10.7,5.5,20.9,14.7,28.1c5.9,4.6,11.8,7.3,19.2,3.5C950.6,1203.7,955.8,1197.8,956.1,1186.4z
			 M685.5,1268.7c0.9-11.1-2.8-20.1-10.6-28c-4-4-6.5-9.4-9.9-14.1c-0.5-0.8-2.1-1.4-3-1.2c-8.1,1.5-16.3,3.1-24.3,4.9
			c-1.2,0.3-3,1.7-3.1,2.8c-1.3,12.9-1.9,25.9,1.2,38.7c0.9,3.9,3,6.5,6.9,7.7c12.2,4,24.6,5.4,37.4,4.7c2.8-0.1,4.3-1.1,4.5-4
			C684.7,1276.3,685.2,1272.5,685.5,1268.7z M1009.4,1130.8c-0.5-6.1-0.8-12.4-1.7-18.6c-0.1-1.1-2.4-3-3.2-2.8
			c-11.5,2.6-23,5.3-34.3,8.5c-7.1,2-7.3,2.8-6.4,10.5c1.5,12.9,3.1,25.7,4.4,38.6c0.9,8.8,4.6,12.2,12.7,8.8
			c7.5-3.1,14.1-8.4,21-12.9c4-2.7,5.6-6.8,5.9-11.5C1008.3,1144.7,1008.9,1137.9,1009.4,1130.8z M619.5,1255.1
			c-0.4-7.7-1-12.8-0.9-18c0.1-4.1-1.2-6-5.5-7.2c-11.6-3.4-22.3-8.1-21-23.5c0-0.3-2-1.4-2.4-1.1c-6.2,4.3-13.4,8.2-14.6,16.6
			c-1.4,9.5-2.4,19.1-3.1,28.7c-0.1,2,1.5,5,3.2,6.1c12.2,8,25.6,13.3,40.1,15.8c3,0.5,4.3-0.2,4.2-3.5
			C619.3,1263.5,619.5,1258,619.5,1255.1z M530.4,1147.3c0-3.5,0-6,0-8.5c0-2.5,0.2-5,0.3-7.5c0.4-8.3,0.3-8.5-7.6-11.5
			c-3.1-1.2-6.4-1.9-9.6-2.7c-5.2-1.3-10.4-2.2-15.4-3.9c-3.5-1.2-5.1-0.2-5.2,3.2c-0.4,9.8-1.4,19.6-0.8,29.4
			c0.6,10.1,4.7,19.1,13.1,25.4c5.7,4.3,12,6.3,19.2,3.7c2.7-0.9,4.1-2.2,4.3-5.2C529,1161.9,529.8,1154.1,530.4,1147.3z
			 M724.5,1286.8c0-0.1,0-0.2,0-0.3c6.3,0,12.6,0,18.9,0c3.4,0,5.4-1.4,5.5-4.9c0-9.1,0-18.3-0.1-27.4c0-2.6-1.1-4.1-4.3-4.3
			c-6.3-0.3-12.6-1.3-18.9-1.5c-6.3-0.1-12.6,0.2-18.8,0.7c-3.4,0.3-6.1,2.7-6,6.3c0.2,9,0.9,17.9,1.4,26.9c0.1,2.8,1.7,3.5,4.3,3.6
			C712.5,1286.1,718.5,1286.5,724.5,1286.8z M767.7,1263.6c0,0-0.1,0-0.2,0c0,6,0.3,12-0.1,18c-0.2,4.2,1.6,5.4,5.2,5
			c11.2-1.2,22.5-2.1,33.6-3.8c6.9-1,8.7-4.5,7.4-11.5c-0.8-4.6-1.7-9.1-2.3-13.8c-1.5-12.2-1.4-12.2-14.1-10.7
			c-9.4,1.1-18.6,1-27.3-3.5c-2.9-1.5-3.3-0.5-3.1,2.3C767.3,1251.6,767.4,1257.6,767.7,1263.6z M828.3,1260.4c-0.2,0-0.4,0-0.6,0
			c0.6,5,1,9.9,1.7,14.8c0.6,4,3,5.1,6.8,4.3c5.4-1.1,10.8-1.7,16.2-2.8c5.4-1.1,10.7-2.2,15.9-3.8c3.7-1.1,6.7-4,6.4-8.1
			c-0.7-8.3-2.1-16.5-3.5-24.6c-0.2-1.4-2.2-3.6-3.3-3.6c-8.8,0-17.6-0.2-26.3,0.8c-8.2,1-12.9,7.1-13.3,15.5
			C828.1,1255.4,828.3,1257.9,828.3,1260.4z M919.8,1246.3c0.1-8.7-2.1-18.8-7.2-28.2c-2.6-4.8-5.2-5.2-8.8-1
			c-0.8,0.9-1.5,1.8-1.9,2.9c-2.2,5.8-6.1,9.1-12.2,10.7c-1.9,0.5-4.5,3.8-4.4,5.5c0.9,8.6,2.4,17.1,4,25.6c0.7,3.7,3.3,5.3,7.1,4.2
			c5.3-1.6,10.6-2.9,15.7-4.9C919.9,1258.1,920.5,1256.7,919.8,1246.3z M965.2,1232.2c-1.9-7.3-3.6-13.9-5.2-20.5
			c-0.7-3.1-1.7-3-3.8-0.9c-5.8,5.9-12.5,10.3-21.1,11.5c-1.3,0.2-3.4,2.1-3.4,3.3c-0.1,6.1,0,12.2,0.6,18.3
			c0.5,4.6,3.8,6.5,7.9,4.6c7.5-3.4,14.8-7.3,22-11.3C963.8,1236.2,964.4,1233.6,965.2,1232.2z M1001.7,1188.1
			c0-0.5-0.1-1.3-0.2-2.1c-0.6-5.6-0.6-5.5-5.7-3.2c-4.9,2.2-9.8,4.2-14.7,6.3c-9,3.9-9.2,3.9-7.6,13.6c1,6.2,2.4,12.4,4,18.5
			c0.7,2.6,2.4,5.6,5.7,2.6C993.5,1214.2,1001.3,1203.3,1001.7,1188.1z M537.2,1200.2c-0.4,0-0.9,0-1.3,0c-1.5,9.6-3,19.2-4.3,28.8
			c-0.2,1.8,0.2,4.5,1.5,5.6c6,5.2,12.2,10.1,18.7,14.7c2.6,1.8,5.5,0.9,5.7-2.8c0.4-6.6,0.5-13.3,0.5-19.9c0-0.8-0.8-2-1.5-2.4
			C547.1,1218.6,541.2,1210.2,537.2,1200.2z M523.5,1198.1c-1-2.1-1.8-6.2-3.3-6.5c-7.2-1.6-13.5-4.6-19.2-9.1
			c-0.4-0.3-1.1-0.2-1.7-0.4c0.1,0.4,0.1,1,0.3,1.4c5.4,10.5,10.7,21,16.1,31.5c0.4,0.8,1.4,1.2,2.1,1.8c0.5-0.8,1.2-1.6,1.4-2.5
			C520.7,1209.2,521.9,1204.1,523.5,1198.1z M1022.3,1112.6c0.6,6.9,1.2,14.4,1.9,21.8c0.1,1.1,0.4,2.2,0.6,3.3
			c0.8-0.9,2-1.8,2.2-2.8c2.9-11.6,5.7-23.2,8.2-34.8c0.1-0.7-2.1-2.7-3.1-2.6C1025.4,1097.7,1022.3,1102.6,1022.3,1112.6z
			 M484.1,1118.8c-0.5-2.9-0.9-6.7-1.9-10.3c-0.3-1-2.2-1.7-3.5-2.1c-0.4-0.1-1.8,1.6-1.7,2.4c0.6,7.9,1.4,15.8,2.3,23.7
			c0.1,0.8,1.1,1.4,1.7,2.2c0.4-0.7,1-1.4,1.1-2.1C482.7,1128.3,483.3,1124,484.1,1118.8z"/>
	</g>
</g>
<rect y="-4" class="st0" width="1536" height="2048"/>
</svg>
